<?xml version="1.0" encoding="utf-8"?>
<!-- Generator: Adobe Illustrator 19.0.0, SVG Export Plug-In . SVG Version: 6.00 Build 0)  -->
<svg version="1.1" id="OBJECTS" xmlns="http://www.w3.org/2000/svg" xmlns:xlink="http://www.w3.org/1999/xlink" x="0px" y="0px"
	 viewBox="-270 72 418 353" style="enable-background:new -270 72 418 353;" xml:space="preserve">
<style type="text/css">
	.st0{opacity:0.74;fill:#FECD32;enable-background:new    ;}
	.st1{fill:#FECD32;}
	.st2{fill:#E5E1E3;}
	.st3{fill:#B5B3B4;}
	.st4{fill:#969696;}
	.st5{fill:#534B63;}
	.st6{fill:#FFFFFF;}
	.st7{fill:#007CD4;}
	.st8{fill:none;}
	.st9{font-family:'ArialMT';}
	.st10{font-size:12px;}
	.st11{font-family:'FranklinGothic-DemiCond';}
	.st12{font-size:28.6096px;}
	.st13{enable-background:new    ;}
</style>
<g>
	<path class="st0" d="M97.3,208.4H70.8v-23.8c0-14.6-10.7-26.5-23.7-26.5h-234.6c-13.1,0-23.7,11.9-23.7,26.5v36
		c0,14.6,10.7,26.5,23.7,26.5h29.2c0.7,1.5,1.5,2.9,2.5,4.2h-2.7c-13.1,0-23.7,11.9-23.7,26.5s10.7,26.5,23.7,26.5H29
		c13.1,0,23.7-11.9,23.7-26.5c0-6.2-1.9-12-5.2-16.5h49.7c13.1,0,23.7-11.9,23.7-26.5C121.1,220.3,110.4,208.4,97.3,208.4z"/>
	<path class="st1" d="M114.6,201.6H85.3c-3.6,0-6.5-2.9-6.5-6.5l0,0c0-3.6,2.9-6.5,6.5-6.5h29.3c3.6,0,6.5,2.9,6.5,6.5l0,0
		C121.1,198.6,118.1,201.6,114.6,201.6z"/>
	<path class="st1" d="M132.7,284H67.1c-3.6,0-6.5-2.9-6.5-6.5l0,0c0-3.6,2.9-6.5,6.5-6.5h65.6c3.6,0,6.5,2.9,6.5,6.5l0,0
		C139.2,281.1,136.3,284,132.7,284z"/>
	<path class="st1" d="M-192.8,266.1h-44.4c-3.6,0-6.5,2.9-6.5,6.5l0,0c0,3.6,2.9,6.5,6.5,6.5h44.4c3.6,0,6.5-2.9,6.5-6.5l0,0
		C-186.3,269-189.3,266.1-192.8,266.1z"/>
	<path class="st1" d="M-231.9,245.7h-7.6c-3.6,0-6.5,2.9-6.5,6.5l0,0c0,3.6,2.9,6.5,6.5,6.5h7.6c3.6,0,6.5-2.9,6.5-6.5l0,0
		C-225.4,248.7-228.3,245.7-231.9,245.7z"/>
	<path class="st1" d="M103.8,179.9c-0.2,2.3-2.1,3.9-4.2,3.7s-3.7-2.2-3.5-4.5s2.1-3.9,4.2-3.7S104,177.6,103.8,179.9z"/>
	<path class="st1" d="M-245.8,241.4c-0.2,2.3-2.1,3.9-4.2,3.7c-2.1-0.2-3.7-2.2-3.5-4.5s2.1-3.9,4.2-3.7
		C-247.1,237.2-245.6,239.2-245.8,241.4z"/>
	<path class="st1" d="M-141.3,133.2c-0.2,2.3-2.1,3.9-4.2,3.7c-2.1-0.2-3.7-2.2-3.5-4.5s2.1-3.9,4.2-3.7
		C-142.8,129-141.1,131-141.3,133.2z"/>
	<path class="st1" d="M130.5,203.6c-0.1,1.4-1.2,2.5-2.5,2.4c-1.3-0.1-2.3-1.3-2.3-2.7c0.1-1.4,1.2-2.5,2.5-2.4
		C129.5,200.9,130.5,202.1,130.5,203.6z"/>
	<path class="st1" d="M136.9,198.9c0,0.9-0.8,1.6-1.6,1.5c-0.8,0-1.5-0.8-1.4-1.7c0-0.9,0.8-1.6,1.6-1.5
		C136.3,197.2,137,198,136.9,198.9z"/>
	<path class="st1" d="M93.6,292.3c-0.1,1.4-1.2,2.5-2.5,2.4s-2.3-1.3-2.3-2.7c0.1-1.4,1.2-2.5,2.5-2.4
		C92.7,289.7,93.7,290.9,93.6,292.3z"/>
	<path class="st1" d="M79,289c0,0.9-0.8,1.6-1.6,1.5c-0.8,0-1.5-0.8-1.4-1.7c0-0.9,0.8-1.6,1.6-1.5C78.4,287.4,79.1,288.2,79,289z"
		/>
	<path class="st1" d="M-193.8,257.2c-0.1,1.4-1.2,2.5-2.5,2.4s-2.3-1.3-2.3-2.7c0.1-1.4,1.2-2.5,2.5-2.4
		C-194.6,254.6-193.6,255.8-193.8,257.2z"/>
	<path class="st1" d="M-208.3,253.9c0,0.9-0.8,1.6-1.6,1.5s-1.5-0.8-1.4-1.7c0-0.9,0.8-1.6,1.6-1.5
		C-208.9,252.3-208.3,253-208.3,253.9z"/>
	<path class="st1" d="M-138.9,149.3c-0.1,1.4-1.2,2.5-2.5,2.4s-2.3-1.3-2.3-2.7c0.1-1.4,1.2-2.5,2.5-2.4
		C-139.8,146.7-138.8,147.9-138.9,149.3z"/>
	<path class="st1" d="M-153.5,146c0,0.9-0.8,1.6-1.6,1.5c-0.8,0-1.5-0.8-1.4-1.7c0-0.9,0.8-1.6,1.6-1.5
		C-154.1,144.4-153.4,145.1-153.5,146z"/>
</g>
<g>
	<ellipse class="st2" cx="-54.9" cy="323.1" rx="66.3" ry="8.3"/>
	<g>
		<rect x="-70" y="294.2" class="st3" width="25.2" height="19.8"/>
		<rect x="-70" y="290.7" class="st4" width="25.2" height="9.9"/>
		<path class="st4" d="M-11.9,325H-103c-2.4,0-4.4-2-4.4-4.4v-3.3c0-2.4,2-4.4,4.4-4.4h91.1c2.4,0,4.4,2,4.4,4.4v3.3
			C-7.5,323.1-9.5,325-11.9,325z"/>
		<path class="st5" d="M12.6,203.4H-39l-11.8,11.8l9.5,8.5l-23.4,29.5l8.7-27l-11.8-8.5l6.7-7.6l-6.7-6.8h-57.1
			c-1.7,0-3.1,1.4-3.1,3.1v84.7c0,1.7,1.4,3.1,3.1,3.1H12.6c1.7,0,3.1-1.4,3.1-3.1v-84.7C15.7,204.7,14.3,203.4,12.6,203.4z"/>
		<path class="st3" d="M15.7,287.1h-143.6v4.8c0,1.3,1,2.3,2.3,2.3h139c1.3,0,2.3-1,2.3-2.3V287.1z"/>
		<path class="st6" d="M7.5,210.1h-53.2l-5,5l9.5,8.5l-23.4,29.5l8.7-27l-11.8-8.5l6.7-7.6h-58.6c-1.4,0-2.5,1.1-2.5,2.5v65.1
			c0,1.4,1.1,2.5,2.5,2.5H7.5c1.4,0,2.5-1.1,2.5-2.5v-65C9.9,211.3,8.8,210.1,7.5,210.1z"/>
	</g>
</g>
<g>
	<g>
		<path class="st7" d="M-56,204.4c4.3-4.1,0.6-12.2-5.9-12.7c-4.5-0.3-10.2,2-12.9-1.2c-1.7-2.1-0.5-5-1-7.5
			c-2-10.4-19.9-8.2-27.1-9c-12.5-1.5-25.2-12.1-25.3-25.9c0-7.7,4.1-14.9,9.6-20.2c26.3-25.2,70.4-32.5,105-29.5
			c21.9,1.9,57.1,7.3,61.1,34.8c1.1,7.7-1.8,15.6-6.3,21.9c-19.7,27.1-58.5,23.4-87.4,21c-3-0.3-6.2-0.5-9,0.5s-5,3.7-4.1,6.3
			c6,0.8,11,5.4,11.7,10.7c0.7,5.2-3,10.6-8.6,12.5L-56,204.4z"/>
	</g>
	<g>
		<path id="SVGID_x5F_1_x5F_" class="st8" d="M-112.5,150.8c0,0,86,11.5,149-22"/>
		<text transform="matrix(1 0 0 1 -265.15 46.6)" class="st9 st10">  </text>
		<text transform="matrix(1 0 0 1 -95.5405 152.2258)" class="st9 st10"> </text>
		<text transform="matrix(1 0 0 1 -92.2127 152.4751)" class="st6 st11 st12">O</text>
		<text transform="matrix(1 0 0 1 -76.1341 152.797)" class="st6 st11 st12">O</text>
		<text transform="matrix(1 0 0 1 -60.0573 152.385)" class="st6 st11 st12">O</text>
		<text transform="matrix(1 0 0 1 -44.0179 151.206)" class="st6 st11 st12">O</text>
		<text transform="matrix(1 0 0 1 -28.0604 149.1947)" class="st6 st11 st12">O</text>
		<text transform="matrix(1 0 0 1 -12.2512 146.2362)" class="st6 st11 st12">P</text>
		<text transform="matrix(1 0 0 1 1.9386 142.6654)" class="st6 st11 st12">S</text>
		<text transform="matrix(1 0 0 1 15.8104 138.0277)" class="st6 st11 st12">.</text>
		<text transform="matrix(1 0 0 1 22.6142 135.3626)" class="st6 st11 st12">.</text>
		<text transform="matrix(1 0 0 1 29.3004 132.4145)" class="st6 st11 st12">.</text>
		<text transform="matrix(1 0 0 1 -265.15 46.6)" class="st9 st10"> </text>
	</g>
</g>
<g>
	<g class="st13">
		<path class="st7" d="M-145.3,346.8h7.3v18.6h3.4v5.2h-3.4v7.2h-6.7v-7.2h-11v-5.2L-145.3,346.8z M-144,365.8v-12.6l-6.8,12.6H-144
			z"/>
		<path class="st7" d="M-111.4,362.2c0,5.5-0.8,9.6-2.4,12.2s-4.2,3.9-7.8,3.9c-3.7,0-6.4-1.4-7.9-4.1s-2.3-6.5-2.3-11.3
			c0-5.5,0.8-9.6,2.4-12.2c1.6-2.6,4.2-3.9,7.8-3.9c3.7,0,6.4,1.4,7.9,4.1S-111.4,357.4-111.4,362.2z M-118.5,362.6
			c0-4.6-0.2-7.6-0.6-8.9s-1.2-2-2.5-2c-1.1,0-1.9,0.6-2.4,1.7s-0.7,4.2-0.7,9.2s0.2,8,0.7,9.2s1.3,1.7,2.4,1.7s1.9-0.5,2.4-1.6
			S-118.5,367.7-118.5,362.6z"/>
		<path class="st7" d="M-98.3,346.8h7.3v18.6h3.4v5.2h-3.5v7.2h-6.7v-7.2h-11v-5.2L-98.3,346.8z M-97.2,365.8v-12.6l-6.8,12.6H-97.2
			z"/>
		<path class="st7" d="M-75,347.3h18.6v5.2h-11.8v7.1h9.2v5.2h-9.2v7.5h11.8v5.5h-18.6C-75.1,377.8-75.1,347.3-75,347.3z"/>
		<path class="st7" d="M-53.2,347.3h9.6c1.9,0,3.3,0.1,4.3,0.3c1,0.2,2,0.6,3,1.4s1.8,1.8,2.4,3.1c0.6,1.3,0.9,2.8,0.9,4.4
			c0,3.8-1.4,6.5-4.3,8l5.6,13.3h-7.4l-4.1-12.1h-3.4v12.1h-6.7v-30.5H-53.2z M-46.5,352.2v8.6h3c2.6,0,3.9-1.5,3.9-4.4
			c0-1-0.2-1.8-0.6-2.5c-0.4-0.6-0.8-1.1-1.4-1.3c-0.5-0.2-1.3-0.3-2.3-0.3h-2.6V352.2z"/>
		<path class="st7" d="M-28.3,347.3h9.6c1.9,0,3.3,0.1,4.3,0.3c1,0.2,2,0.6,3,1.4s1.8,1.8,2.4,3.1c0.6,1.3,0.9,2.8,0.9,4.4
			c0,3.8-1.4,6.5-4.3,8l5.6,13.3h-7.3l-4.1-12.1h-3.4v12.1h-6.7V347.3z M-21.6,352.2v8.6h3c2.6,0,3.9-1.5,3.9-4.4
			c0-1-0.2-1.8-0.6-2.5c-0.4-0.6-0.8-1.1-1.4-1.3c-0.5-0.2-1.3-0.3-2.3-0.3h-2.6V352.2z"/>
		<path class="st7" d="M17.8,362.5c0,10.5-3.7,15.7-11.1,15.7c-3.7,0-6.4-1.3-8.3-4s-2.8-6.6-2.8-11.7c0-10.5,3.7-15.7,11.1-15.7
			c3.6,0,6.4,1.3,8.2,3.9S17.8,357.3,17.8,362.5z M10.7,362.5c0-4.1-0.3-6.9-1-8.2c-0.6-1.4-1.7-2-3.1-2s-2.4,0.7-3,2.1
			s-1,4.1-1,8.2c0,4,0.3,6.7,1,8.2c0.6,1.4,1.7,2.1,3.1,2.1s2.4-0.7,3.1-2C10.5,369.6,10.7,366.7,10.7,362.5z"/>
		<path class="st7" d="M22.4,347.3H32c1.9,0,3.3,0.1,4.3,0.3c1,0.2,2,0.6,3,1.4s1.8,1.8,2.4,3.1c0.6,1.3,0.9,2.8,0.9,4.4
			c0,3.8-1.4,6.5-4.3,8l5.6,13.3h-7.3l-4.1-12.1h-3.4v12.1h-6.7C22.4,377.8,22.4,347.3,22.4,347.3z M29.1,352.2v8.6h3
			c2.6,0,3.9-1.5,3.9-4.4c0-1-0.2-1.8-0.6-2.5c-0.4-0.6-0.8-1.1-1.4-1.3c-0.5-0.2-1.3-0.3-2.3-0.3h-2.6V352.2z"/>
	</g>
	<g class="st13">
		<path class="st7" d="M-145.3,346.8h7.3v18.6h3.4v5.2h-3.4v7.2h-6.7v-7.2h-11v-5.2L-145.3,346.8z M-144,365.8v-12.6l-6.8,12.6H-144
			z"/>
		<path class="st7" d="M-111.4,362.2c0,5.5-0.8,9.6-2.4,12.2s-4.2,3.9-7.8,3.9c-3.7,0-6.4-1.4-7.9-4.1s-2.3-6.5-2.3-11.3
			c0-5.5,0.8-9.6,2.4-12.2c1.6-2.6,4.2-3.9,7.8-3.9c3.7,0,6.4,1.4,7.9,4.1S-111.4,357.4-111.4,362.2z M-118.5,362.6
			c0-4.6-0.2-7.6-0.6-8.9s-1.2-2-2.5-2c-1.1,0-1.9,0.6-2.4,1.7s-0.7,4.2-0.7,9.2s0.2,8,0.7,9.2s1.3,1.7,2.4,1.7s1.9-0.5,2.4-1.6
			S-118.5,367.7-118.5,362.6z"/>
		<path class="st7" d="M-98.3,346.8h7.3v18.6h3.4v5.2h-3.5v7.2h-6.7v-7.2h-11v-5.2L-98.3,346.8z M-97.2,365.8v-12.6l-6.8,12.6H-97.2
			z"/>
		<path class="st7" d="M-75,347.3h18.6v5.2h-11.8v7.1h9.2v5.2h-9.2v7.5h11.8v5.5h-18.6C-75.1,377.8-75.1,347.3-75,347.3z"/>
		<path class="st7" d="M-53.2,347.3h9.6c1.9,0,3.3,0.1,4.3,0.3c1,0.2,2,0.6,3,1.4s1.8,1.8,2.4,3.1c0.6,1.3,0.9,2.8,0.9,4.4
			c0,3.8-1.4,6.5-4.3,8l5.6,13.3h-7.4l-4.1-12.1h-3.4v12.1h-6.7v-30.5H-53.2z M-46.5,352.2v8.6h3c2.6,0,3.9-1.5,3.9-4.4
			c0-1-0.2-1.8-0.6-2.5c-0.4-0.6-0.8-1.1-1.4-1.3c-0.5-0.2-1.3-0.3-2.3-0.3h-2.6V352.2z"/>
		<path class="st7" d="M-28.3,347.3h9.6c1.9,0,3.3,0.1,4.3,0.3c1,0.2,2,0.6,3,1.4s1.8,1.8,2.4,3.1c0.6,1.3,0.9,2.8,0.9,4.4
			c0,3.8-1.4,6.5-4.3,8l5.6,13.3h-7.3l-4.1-12.1h-3.4v12.1h-6.7V347.3z M-21.6,352.2v8.6h3c2.6,0,3.9-1.5,3.9-4.4
			c0-1-0.2-1.8-0.6-2.5c-0.4-0.6-0.8-1.1-1.4-1.3c-0.5-0.2-1.3-0.3-2.3-0.3h-2.6V352.2z"/>
		<path class="st7" d="M17.8,362.5c0,10.5-3.7,15.7-11.1,15.7c-3.7,0-6.4-1.3-8.3-4s-2.8-6.6-2.8-11.7c0-10.5,3.7-15.7,11.1-15.7
			c3.6,0,6.4,1.3,8.2,3.9S17.8,357.3,17.8,362.5z M10.7,362.5c0-4.1-0.3-6.9-1-8.2c-0.6-1.4-1.7-2-3.1-2s-2.4,0.7-3,2.1
			s-1,4.1-1,8.2c0,4,0.3,6.7,1,8.2c0.6,1.4,1.7,2.1,3.1,2.1s2.4-0.7,3.1-2C10.5,369.6,10.7,366.7,10.7,362.5z"/>
		<path class="st7" d="M22.4,347.3H32c1.9,0,3.3,0.1,4.3,0.3c1,0.2,2,0.6,3,1.4s1.8,1.8,2.4,3.1c0.6,1.3,0.9,2.8,0.9,4.4
			c0,3.8-1.4,6.5-4.3,8l5.6,13.3h-7.3l-4.1-12.1h-3.4v12.1h-6.7C22.4,377.8,22.4,347.3,22.4,347.3z M29.1,352.2v8.6h3
			c2.6,0,3.9-1.5,3.9-4.4c0-1-0.2-1.8-0.6-2.5c-0.4-0.6-0.8-1.1-1.4-1.3c-0.5-0.2-1.3-0.3-2.3-0.3h-2.6V352.2z"/>
	</g>
	<g class="st13">
		<path class="st7" d="M-145.3,346.8h7.3v18.6h3.4v5.2h-3.4v7.2h-6.7v-7.2h-11v-5.2L-145.3,346.8z M-144,365.8v-12.6l-6.8,12.6H-144
			z"/>
		<path class="st7" d="M-111.4,362.2c0,5.5-0.8,9.6-2.4,12.2s-4.2,3.9-7.8,3.9c-3.7,0-6.4-1.4-7.9-4.1s-2.3-6.5-2.3-11.3
			c0-5.5,0.8-9.6,2.4-12.2c1.6-2.6,4.2-3.9,7.8-3.9c3.7,0,6.4,1.4,7.9,4.1S-111.4,357.4-111.4,362.2z M-118.5,362.6
			c0-4.6-0.2-7.6-0.6-8.9s-1.2-2-2.5-2c-1.1,0-1.9,0.6-2.4,1.7s-0.7,4.2-0.7,9.2s0.2,8,0.7,9.2s1.3,1.7,2.4,1.7s1.9-0.5,2.4-1.6
			S-118.5,367.7-118.5,362.6z"/>
		<path class="st7" d="M-98.3,346.8h7.3v18.6h3.4v5.2h-3.5v7.2h-6.7v-7.2h-11v-5.2L-98.3,346.8z M-97.2,365.8v-12.6l-6.8,12.6H-97.2
			z"/>
		<path class="st7" d="M-75,347.3h18.6v5.2h-11.8v7.1h9.2v5.2h-9.2v7.5h11.8v5.5h-18.6C-75.1,377.8-75.1,347.3-75,347.3z"/>
		<path class="st7" d="M-53.2,347.3h9.6c1.9,0,3.3,0.1,4.3,0.3c1,0.2,2,0.6,3,1.4s1.8,1.8,2.4,3.1c0.6,1.3,0.9,2.8,0.9,4.4
			c0,3.8-1.4,6.5-4.3,8l5.6,13.3h-7.4l-4.1-12.1h-3.4v12.1h-6.7v-30.5H-53.2z M-46.5,352.2v8.6h3c2.6,0,3.9-1.5,3.9-4.4
			c0-1-0.2-1.8-0.6-2.5c-0.4-0.6-0.8-1.1-1.4-1.3c-0.5-0.2-1.3-0.3-2.3-0.3h-2.6V352.2z"/>
		<path class="st7" d="M-28.3,347.3h9.6c1.9,0,3.3,0.1,4.3,0.3c1,0.2,2,0.6,3,1.4s1.8,1.8,2.4,3.1c0.6,1.3,0.9,2.8,0.9,4.4
			c0,3.8-1.4,6.5-4.3,8l5.6,13.3h-7.3l-4.1-12.1h-3.4v12.1h-6.7V347.3z M-21.6,352.2v8.6h3c2.6,0,3.9-1.5,3.9-4.4
			c0-1-0.2-1.8-0.6-2.5c-0.4-0.6-0.8-1.1-1.4-1.3c-0.5-0.2-1.3-0.3-2.3-0.3h-2.6V352.2z"/>
		<path class="st7" d="M17.8,362.5c0,10.5-3.7,15.7-11.1,15.7c-3.7,0-6.4-1.3-8.3-4s-2.8-6.6-2.8-11.7c0-10.5,3.7-15.7,11.1-15.7
			c3.6,0,6.4,1.3,8.2,3.9S17.8,357.3,17.8,362.5z M10.7,362.5c0-4.1-0.3-6.9-1-8.2c-0.6-1.4-1.7-2-3.1-2s-2.4,0.7-3,2.1
			s-1,4.1-1,8.2c0,4,0.3,6.7,1,8.2c0.6,1.4,1.7,2.1,3.1,2.1s2.4-0.7,3.1-2C10.5,369.6,10.7,366.7,10.7,362.5z"/>
		<path class="st7" d="M22.4,347.3H32c1.9,0,3.3,0.1,4.3,0.3c1,0.2,2,0.6,3,1.4s1.8,1.8,2.4,3.1c0.6,1.3,0.9,2.8,0.9,4.4
			c0,3.8-1.4,6.5-4.3,8l5.6,13.3h-7.3l-4.1-12.1h-3.4v12.1h-6.7C22.4,377.8,22.4,347.3,22.4,347.3z M29.1,352.2v8.6h3
			c2.6,0,3.9-1.5,3.9-4.4c0-1-0.2-1.8-0.6-2.5c-0.4-0.6-0.8-1.1-1.4-1.3c-0.5-0.2-1.3-0.3-2.3-0.3h-2.6V352.2z"/>
	</g>
</g>
</svg>
