<?xml version="1.0" encoding="utf-8"?>
<!-- Generator: Adobe Illustrator 19.0.0, SVG Export Plug-In . SVG Version: 6.00 Build 0)  -->
<svg version="1.1" id="Layer_1" xmlns="http://www.w3.org/2000/svg" xmlns:xlink="http://www.w3.org/1999/xlink" x="0px" y="0px"
	 viewBox="0 0 238 96" style="enable-background:new 0 0 238 96;" xml:space="preserve">
<style type="text/css">
	.st0{clip-path:url(#SVGID_2_);fill-rule:evenodd;clip-rule:evenodd;fill:#FF6666;}
	.st1{clip-path:url(#SVGID_2_);fill-rule:evenodd;clip-rule:evenodd;fill:#FF6600;}
	.st2{clip-path:url(#SVGID_2_);fill-rule:evenodd;clip-rule:evenodd;fill:#2D8BEF;}
	.st3{clip-path:url(#SVGID_2_);fill-rule:evenodd;clip-rule:evenodd;fill:#FF0000;}
	.st4{clip-path:url(#SVGID_2_);fill-rule:evenodd;clip-rule:evenodd;fill:#09E8FC;}
	.st5{clip-path:url(#SVGID_2_);fill-rule:evenodd;clip-rule:evenodd;fill:#FFCC00;}
	.st6{fill-rule:evenodd;clip-rule:evenodd;fill:#666666;}
	.st7{fill-rule:evenodd;clip-rule:evenodd;fill:#333333;}
</style>
<g>
	<g>
		<defs>
			<path id="SVGID_1_" d="M55,19.7L30.3,32.1c-0.8,0.4-0.6,1.1,0.4,1.6l9.2,4.6l14.8,7.4c1,0.5,2.4,0.6,3.2,0.2l15.2-7.6l4-2
				l-18.7-2.5c-0.5,0.2-1.2,0.4-1.9,0.4c-1.6,0-2.8-0.6-2.8-1.4c0-0.8,1.3-1.4,2.8-1.4c1.3,0,2.3,0.4,2.7,1l20.1,2.8l0,0l3.4-1.7
				c0.8-0.4,0.6-1.1-0.4-1.6l-24.1-12C57.3,19.4,55.8,19.3,55,19.7L55,19.7z M39.8,40.8v2.9c0,0.3,0.1,0.7,0.5,0.9l15,12
				c0.6,0.5,1.6,0.5,2.2,0l15.1-12.1c0.3-0.2,0.4-0.6,0.4-0.9v-2.9l-14.2,7.1c-0.7,0.4-1.7,0.5-2.6,0.5c-0.9,0-1.8-0.3-2.5-0.7
				L39.8,40.8L39.8,40.8z M77,46.9l-2.4,2.4c-0.6,0.6-0.6,1.6,0,2.2l2.4,2.4c0.6,0.6,1.6,0.6,2.2,0l2.4-2.4c0.6-0.6,0.6-1.6,0-2.2
				l-2.4-2.4c0,0-0.1-0.1-0.1-0.1v-9l-2,1v8C77.1,46.8,77,46.9,77,46.9L77,46.9z"/>
		</defs>
		<clipPath id="SVGID_2_">
			<use xlink:href="#SVGID_1_"  style="overflow:visible;"/>
		</clipPath>
		<path class="st0" d="M44,1.1c10.1,0,18.2,8.2,18.2,18.2c0,10.1-8.2,18.2-18.2,18.2s-18.2-8.2-18.2-18.2C25.8,9.3,34,1.1,44,1.1
			L44,1.1z"/>
		<path class="st1" d="M70.8,31.2c10.1,0,18.2,8.2,18.2,18.2c0,10.1-8.2,18.2-18.2,18.2c-10.1,0-18.2-8.2-18.2-18.2
			C52.6,39.3,60.7,31.2,70.8,31.2L70.8,31.2z"/>
		<path class="st2" d="M74.8-3.3c12.5,0,22.6,10.1,22.6,22.6S87.3,42,74.8,42c-12.5,0-22.6-10.1-22.6-22.6S62.2-3.3,74.8-3.3
			L74.8-3.3z"/>
		<path class="st3" d="M59,35.5c-3.9,3.3-6.4,8.3-6.4,13.9c0,4.2,1.4,8,3.7,11.1c-4.1,4-9.6,6.4-15.8,6.4
			c-12.5,0-22.6-10.1-22.6-22.7c0-7.5,3.6-14.1,9.2-18.2c2.7,6.8,9.2,11.6,17,11.6c4.8,0,9.2-1.9,12.4-4.9
			C57.2,33.7,58,34.7,59,35.5L59,35.5z"/>
		<path class="st4" d="M56.4,6c3.6,3.3,5.8,8.1,5.8,13.3c0,5.3-2.2,10-5.8,13.3c-2.7-3.7-4.4-8.4-4.4-13.3
			C52.1,14.3,53.7,9.7,56.4,6L56.4,6z"/>
		<path class="st5" d="M70.8,31.2c6.2,0,11.7,3.1,15,7.9c-3.3,1.8-7,2.9-11,2.9C68.6,42,63,39.5,59,35.5
			C62.1,32.8,66.3,31.2,70.8,31.2L70.8,31.2z"/>
	</g>
	<path class="st6" d="M184,55.4h-7.4c-4.1,0-7.4,3.3-7.4,7.4c0,4.1,3.3,7.4,7.4,7.4h7.4c1.4,0,2.5,1.1,2.5,2.5
		c0,1.4-1.1,2.5-2.5,2.5h-7.4h-6.2c-0.7,0-1.2,0.5-1.2,1.2v3.7h7.4h7.4c4.1,0,7.4-3.3,7.4-7.4c0-4.1-3.3-7.4-7.4-7.4h-7.4
		c-1.4,0-2.5-1.1-2.5-2.5c0-1.4,1.1-2.5,2.5-2.5h7.4h3.7c0.7,0,1.2-0.5,1.2-1.2v-2.5c0-0.7-0.5-1.2-1.2-1.2H184L184,55.4z"/>
	<path class="st6" d="M156.9,80.1c-6.8,0-12.3-5.6-12.3-12.3l0,0c0-6.8,5.6-12.3,12.3-12.3h8.7c0.7,0,1.2,0.5,1.2,1.2v2.5
		c0,0.7-0.5,1.2-1.2,1.2h-8.7c-4.1,0-7.4,3.3-7.4,7.4l0,0c0,4.1,3.3,7.4,7.4,7.4h8.7c0.7,0,1.2,0.5,1.2,1.2v3.7H156.9L156.9,80.1z
		 M157,65.3c-1.4,0-2.5,1.1-2.5,2.5l0,0c0,1.4,1.1,2.5,2.5,2.5h2.5h3.7c0.7,0,1.2-0.5,1.2-1.2v-2.5c0-0.7-0.5-1.2-1.2-1.2h-3.7H157
		L157,65.3z M156.9,75.2L156.9,75.2L156.9,75.2z"/>
	<path class="st6" d="M85.6,55.4L85.6,55.4c6.8,0,12.3,5.6,12.3,12.3l0,0c0,6.8-5.6,12.3-12.3,12.3l0,0c-6.8,0-12.3-5.6-12.3-12.3
		l0,0C73.2,61,78.8,55.4,85.6,55.4L85.6,55.4z M85.6,60.4L85.6,60.4c4.1,0,7.4,3.3,7.4,7.4l0,0c0,4.1-3.3,7.4-7.4,7.4l0,0
		c-4.1,0-7.4-3.3-7.4-7.4l0,0C78.2,63.7,81.5,60.4,85.6,60.4L85.6,60.4z"/>
	<path class="st6" d="M141.9,80.1h-16.7v0h-1.6c-0.5,0-0.8-0.4-0.8-0.8v-4.1l0,0h0l14.6-14.8h-12.2h0h-1.6c-0.5,0-0.8-0.4-0.8-0.8
		v-3.3c0-0.5,0.4-0.8,0.8-0.8h1.6v0h16.7v0h1.6c0.5,0,0.8,0.4,0.8,0.8v4.1l0,0l-14.6,14.8h12.2h1.6c0.5,0,0.8,0.4,0.8,0.8v3.3
		c0,0.5-0.4,0.8-0.8,0.8L141.9,80.1L141.9,80.1L141.9,80.1z"/>
	<path class="st6" d="M197.6,55.4h-1.3h-1.3h-2.5c-0.7,0-1.2,0.5-1.2,1.2v2.5c0,0.7,0.5,1.2,1.2,1.2h1.3v18.5c0,0.7,0.5,1.2,1.2,1.2
		h2.5c0.7,0,1.2-0.5,1.2-1.2v-8.7h8.7c0.7,0,1.2-0.5,1.2-1.2v-2.5c0-0.7-0.5-1.2-1.2-1.2h-8.7v-8.7C198.8,56,198.3,55.4,197.6,55.4
		L197.6,55.4z M214.9,55.4h-2.5c-0.7,0-1.2,0.5-1.2,1.2v22.3c0,0.7,0.5,1.2,1.2,1.2h2.5c0.7,0,1.2-0.5,1.2-1.2V56.6
		C216.1,56,215.6,55.4,214.9,55.4L214.9,55.4z"/>
	<path class="st6" d="M35,78.9l-1.2-4.4c-0.6-2.3-2.5-3.8-4.8-3.8c-2,0-4.1,1.3-4.8,3.7L23,78.9c-0.2,0.7-0.9,1.2-1.5,1.2h-2.5
		c-0.7,0-1.1-0.5-0.9-1.2l6-22.3c0.2-0.6,0.7-1.1,1.3-1.2l0.2,0c2.3,0,4.6,0,6.9,0c0.7,0,1.3,0.5,1.5,1.2l6,22.3
		c0.2,0.7-0.2,1.2-0.9,1.2h-2.5C35.9,80.1,35.2,79.6,35,78.9L35,78.9z M29,62.2c1.5,0,2.8,1.2,2.8,2.8c0,1.5-1.2,2.8-2.8,2.8
		c-1.5,0-2.8-1.2-2.8-2.8C26.2,63.5,27.5,62.2,29,62.2L29,62.2z"/>
	<path class="st6" d="M70.8,77.6V57.9h0v-1.6c0-0.5-0.4-0.8-0.8-0.8h-4.1h0h0v0l0,0c-0.3,0-0.6,0.1-0.8,0.3l-8.6,8.6l-8.6-8.6
		c-0.2-0.2-0.5-0.3-0.8-0.3l0,0v0h0h0H43c-0.5,0-0.8,0.4-0.8,0.8v1.6h0v19.7h0v1.6c0,0.5,0.4,0.8,0.8,0.8h3.3c0.5,0,0.8-0.4,0.8-0.8
		v-1.6V62.4v-0.5l9.4,9.4l9.4-9.4v0.5v15.2v1.6c0,0.5,0.4,0.8,0.8,0.8h3.3c0.5,0,0.8-0.4,0.8-0.8L70.8,77.6L70.8,77.6L70.8,77.6z"/>
	<path class="st6" d="M110.4,55.4L110.4,55.4c6.8,0,12.3,5.6,12.3,12.3l0,0c0,6.8-5.6,12.3-12.3,12.3l0,0c-4.9,0-9.1-2.9-11.1-7
		c0.8-1.6,1.2-3.4,1.2-5.4l0,0c0-1.9-0.4-3.7-1.2-5.4C101.3,58.3,105.5,55.4,110.4,55.4L110.4,55.4z M110.4,60.4L110.4,60.4
		c4.1,0,7.4,3.3,7.4,7.4l0,0c0,4.1-3.3,7.4-7.4,7.4l0,0c-4.1,0-7.4-3.3-7.4-7.4l0,0C103,63.7,106.3,60.4,110.4,60.4L110.4,60.4z"/>
	<path class="st7" d="M47.1,61.9L45,59.5c-0.3-0.4-0.5-0.3-0.1,0.7c0.3,0.7,0.5,1.3,0.8,2c0.5,1.4,1.5,3.5,1.5,3.2V61.9L47.1,61.9z"
		/>
	<path class="st7" d="M198.8,70.2h-3.3c-0.5,0-1,0.1,0,0.5c0.9,0.4,2.2,0.7,3.2,0.8V70.2L198.8,70.2z"/>
	<path class="st7" d="M137.4,60.4h3.8c0.8,0,1.5,0.1-0.1,0.5c-1.4,0.4-3.4,0.7-5,0.8L137.4,60.4L137.4,60.4z"/>
	<path class="st7" d="M129.7,75.2h2.1c0.5,0,1,0.1,0,0.4c-0.9,0.4-2.2,0.7-3.2,0.8L129.7,75.2L129.7,75.2z"/>
</g>
</svg>
