<?xml version="1.0" encoding="utf-8"?>
<!-- Generator: Adobe Illustrator 19.0.0, SVG Export Plug-In . SVG Version: 6.00 Build 0)  -->
<svg version="1.1" id="OBJECTS" xmlns="http://www.w3.org/2000/svg" xmlns:xlink="http://www.w3.org/1999/xlink" x="0px" y="0px"
	 viewBox="0 0 181.4 305.5" style="enable-background:new 0 0 181.4 305.5;" xml:space="preserve">
<style type="text/css">
	.st0{fill:#FFFFFF;}
</style>
<g id="XMLID_348_">
	<g id="XMLID_196_">
		<path id="XMLID_197_" class="st0" d="M94.3,131.5c3.8,0.2,7.8-0.7,11.6-1.5c0,0.8-0.1,1.5-0.1,2.3c0,0.5,0.7,0.4,0.7,0
			c0-0.8,0.1-1.6,0.1-2.4c0,0,0.1,0,0.1,0c2.3-0.5,4.6-1.1,6.9-1.8c1.6,1.2,3.2,2.3,4.9,3.4c-0.8,3.3-1.9,6.5-3.1,9.7
			c-0.9,2.2-1.9,6.1-5,5.5c-3.2-0.6-3.9-4.3-4.3-7c0-0.1,0-0.1-0.1-0.2c0.2-0.2,0.4-0.4,0.5-0.6c0.5-0.9,0.6-2,0.1-2.8
			c0,0,0,0,0-0.1c-0.1-1.5-1.9-2.1-3.1-1.3c-1.2,0.9-1.2,2.9-0.4,4c0.5,0.9,1.4,1.3,2.2,1.1c0.5,2.9,1.2,6.4,4.4,7.4
			c3.3,1.1,4.9-2,5.9-4.5c1.4-3.5,2.6-7.1,3.6-10.8c1.3,0.9,2.7,1.7,4.1,2.6c1.6,1,3.3,1.8,5,2.5c1.6,0.6,3.5,1.4,5.2,1.5
			c3.5,0,1.1-5.8,0.4-7.2c-1.4-3.2-3.5-6-5.9-8.5c1.5-0.7,2.9-1.4,4.3-2.3c0.2-0.1,0-0.5-0.2-0.4c-1.5,0.7-3.1,1.4-4.6,2.1
			c-0.1-0.1-0.2-0.2-0.3-0.3c-1.7-1.8-3.6-3.5-5.5-5.1c0.2-2,0.2-4,0.3-5.9c0.8-0.2,1.6-0.4,2.3-0.5c3.3-0.7,6.9-1.2,10.3-0.7
			c1.2,0.2,4.8,0.9,4.6,2.5c-0.1,0.8-0.9,1.6-1.4,2.1c-0.7,0.7-1.5,1.2-2.4,1.6c0,0-0.1,0-0.1,0c-0.1,0-0.2,0-0.2,0
			c0-0.1-0.1-0.1-0.1-0.1c-0.1-0.1-0.2-0.2-0.3-0.2c-0.2-0.1-0.5-0.1-0.7-0.1c-0.5,0-1.1,0.4-1.4,0.8c-0.9,1.1-0.6,2.8,0.5,3.7
			c1,0.8,2.6,0.6,3.3-0.4c0.6-0.9,0.3-2.3-0.6-2.8c1.8-0.8,5.8-3.7,3.8-5.8c-0.8-0.9-2.3-1.3-3.4-1.6c-1.3-0.3-2.7-0.5-4.1-0.5
			c-3.2,0-6.4,0.5-9.5,1.2c-0.2,0-0.3,0.1-0.5,0.1c0-1.1,0-2.1-0.1-3.2c-0.1-3.1-0.4-6.2-0.9-9.3c-0.3-1.7-0.4-5.7-3-5.3
			c-1.1,0.2-2.1,1.1-2.7,2c-0.8,1.2-1.6,2.5-2.3,3.7c-1.4,2.7-2.5,5.6-3.1,8.6c-0.1,0.3,0.4,0.4,0.5,0.1c0.9-3,1.9-5.8,3.4-8.5
			c0.7-1.3,1.5-2.8,2.5-3.9c0.4-0.5,0.9-0.9,1.5-1.1c1.1-0.4,1.7,0.5,2,1.4c0.7,2.6,0.9,5.3,1.1,8c0.2,2.6,0.3,5.2,0.3,7.7
			c-1.9,0.5-3.9,1.1-5.8,1.7c-2.3-1.6-4.7-3.2-7.2-4.6c0.6-1.3,0.1-3.1-1.1-3.8c-1.1-0.7-2.8-0.3-3.5,0.8c-0.9,1.4,0.3,3.1,1.5,3.8
			c0.6,0.4,1.5,0.6,2.2,0.3c0.2-0.1,0.4-0.3,0.6-0.5c2.3,1.3,4.5,2.7,6.6,4.2c-2.3,0.8-4.5,1.7-6.7,2.6c0.3-1.7,0.6-3.3,0.8-5
			c0-0.2-0.3-0.4-0.4-0.1c-0.6,1.8-1,3.6-1.3,5.5c-1.3,0.6-2.7,1.2-4,1.8c-0.2,0.1-0.1,0.4,0.1,0.3c1.3-0.5,2.5-0.9,3.7-1.4
			c-0.2,1.7-0.4,3.4-0.5,5.1c0,0.3,0,0.6-0.1,0.9c-3.7-2.9-7.2-5.9-10.6-9.1c-1.4-1.3-2.7-2.7-3.5-4.4c-0.7-1.5-1.4-4.1,0.3-5.3
			c1.3-0.9,3.4-0.9,4.9-0.6c1.7,0.3,3.2,1,4.5,2c0.3,0.2,0.6-0.2,0.3-0.4c-2.4-2.1-6.9-3.6-9.9-1.8c-3.6,2.1-0.4,7.4,1.5,9.5
			c2.8,3,6.1,5.7,9.3,8.3c1,0.8,2,1.6,3,2.4c-0.2,2.2-0.3,4.5-0.4,6.7c-3.1,0.7-6.2,1.3-9.4,1.5c-1.7,0.1-3.5,0.1-5.2-0.4
			c-1-0.3-2.5-0.7-2.6-2c-0.1-0.8,0.5-1.7,1-2.3c2.3-2.9,5.6-4.9,8.8-6.8c0.3-0.2,0-0.8-0.3-0.6c-2.1,1-4.1,2.4-5.9,3.9
			c-1.5,1.2-3.2,2.6-4,4.4C86.7,130.6,91.7,131.4,94.3,131.5z M107.8,106.7c-0.1,0-0.2,0.2-0.2,0.3c-0.1,1.8-2.6,0.1-3-0.5
			c-0.6-0.8-0.5-1.9,0.4-2.4c0.8-0.5,1.9-0.3,2.5,0.5C107.9,105.3,107.9,106,107.8,106.7z M134.6,119.4c-1.3,0.1-2.2-1.6-1.6-2.8
			c0.2-0.4,0.8-0.8,1.2-0.7c0.4,0.1,0.5,0.6,0.9,0.7c0,0.1,0.1,0.1,0.1,0.1C136.5,117.6,136,119.4,134.6,119.4z M103.9,138.4
			c-0.5-0.7-0.7-1.8-0.4-2.6c0.4-0.8,1.7-1.2,2.2-0.5c0,0,0,0.1,0.1,0.1c0.1,0.1,0.1,0.3,0.1,0.4c0,0.2,0.1,0.3,0.2,0.3
			c0.1,0.4,0.2,0.9,0.1,1.4C106,138.8,104.8,139.6,103.9,138.4z M121.1,116c-1.5-1.3-3.1-2.5-4.8-3.7c1.6-0.5,3.3-1,5-1.5
			C121.2,112.6,121.2,114.3,121.1,116z M126.8,122.3c-2,0.9-4,1.8-6.1,2.5c0.4-2.4,0.7-4.9,1-7.4c1.7,1.5,3.4,3,4.9,4.7
			C126.7,122.2,126.7,122.3,126.8,122.3z M119.4,131.1c0.5-1.8,0.8-3.6,1.2-5.4c2.3-0.8,4.6-1.7,6.8-2.8c2.3,2.4,4.3,5.1,5.8,8.1
			c0.7,1.5,1.4,3.2,1.6,4.8c0,0.4,0.1,1-0.2,1.4c-0.3,0.6-1.2,0.5-1.7,0.4c-0.8-0.2-1.5-0.4-2.2-0.6c-3.2-1-6.1-2.7-9-4.4
			C120.9,132.1,120.1,131.6,119.4,131.1z M114.5,127.7c1.8-0.5,3.5-1.1,5.3-1.8c-0.3,1.6-0.6,3.1-1,4.7
			C117.3,129.7,115.9,128.7,114.5,127.7z M112.5,126.3c-1.8-1.3-3.6-2.7-5.4-4.1c0-0.5,0.1-1,0.1-1.5c0.2-1.8,0.4-3.6,0.6-5.3
			c2.5-1,5.1-2,7.6-2.8c1.9,1.3,3.7,2.8,5.5,4.3c-0.2,2.8-0.6,5.5-1.1,8.3c-0.1,0-0.2,0.1-0.3,0.1c-1.9,0.7-3.9,1.3-5.8,1.9
			C113.3,126.9,112.9,126.6,112.5,126.3z M106.7,129c0.1-2,0.2-4,0.4-6c1.9,1.5,3.9,3,5.9,4.4c-1.6,0.5-3.3,0.9-4.9,1.3
			C107.5,128.8,107.1,128.9,106.7,129z"/>
		<path id="XMLID_208_" class="st0" d="M113,123.9c1.9,0.6,4.3-0.5,4.9-2.4c0.9-2.5-1.5-5-3.7-5.8c0,0-0.1,0-0.1,0
			c-0.6-0.6-1.7-0.5-2.5-0.2c-1.1,0.5-1.6,1.7-1.8,2.8C109.6,120.6,110.8,123.2,113,123.9z M110.6,119.6c-0.1-1,0.1-2.1,0.7-2.8
			c0.8-0.9,1.7-0.8,2.6-0.2c0.2,0.1,0.5-0.1,0.4-0.3c1.6,1,3.3,3,2.9,4.9c-0.4,1.5-2.1,2.5-3.6,2.2
			C111.9,123,110.8,121.2,110.6,119.6z"/>
		<path id="XMLID_211_" class="st0" d="M115.3,118.1c-0.2,0-0.4,0-0.5-0.1c-0.1-0.1,0-0.2,0.1-0.2c0.1,0,0.2,0,0.4,0
			C115.5,117.7,115.5,118,115.3,118.1z"/>
		<path id="XMLID_212_" class="st0" d="M115.7,119c-0.2-0.1-0.4-0.2-0.6-0.2c-0.1,0-0.2-0.2,0-0.3c0.3-0.1,0.5,0,0.8,0.1
			C116,118.8,115.9,119.1,115.7,119z"/>
		<path id="XMLID_213_" class="st0" d="M114.9,119.7c-0.2-0.1-0.1-0.3,0-0.3c0.2-0.1,0.5,0,0.8,0c0.3,0.1,0.5,0.1,0.7,0.3
			c0.3,0.1,0.1,0.5-0.2,0.4c-0.2-0.1-0.5-0.1-0.7-0.2C115.4,119.8,115.1,119.8,114.9,119.7z"/>
		<path id="XMLID_214_" class="st0" d="M114.6,120.5c-0.1-0.1-0.1-0.3,0.1-0.3c0.3,0,0.6,0.1,0.8,0.2c0.3,0.1,0.6,0.1,0.8,0.2
			c0.2,0.1,0.1,0.4-0.1,0.3c-0.3-0.1-0.6-0.1-0.8-0.2C115.2,120.7,114.9,120.6,114.6,120.5z"/>
		<path id="XMLID_215_" class="st0" d="M114.5,121.4c-0.1-0.1,0-0.2,0-0.2c0.4-0.2,1,0.2,1.4,0.4c0.2,0.1,0.1,0.5-0.2,0.4
			c-0.2-0.1-0.4-0.2-0.7-0.3C114.9,121.6,114.7,121.6,114.5,121.4z"/>
		<path id="XMLID_216_" class="st0" d="M114.5,122.2c0.3-0.3,0.8-0.1,1.1,0c0.3,0.1,0.1,0.6-0.2,0.5c-0.2,0-0.3-0.1-0.5-0.1
			c-0.1,0-0.3,0-0.4-0.2C114.5,122.4,114.5,122.3,114.5,122.2z"/>
		<path id="XMLID_217_" class="st0" d="M114,122.5c0.2,0,0.4,0.1,0.5,0.2c0.3,0.1,0.1,0.6-0.2,0.4c-0.2-0.1-0.4-0.2-0.5-0.3
			C113.8,122.6,113.9,122.5,114,122.5z"/>
		<path id="XMLID_218_" class="st0" d="M108.1,103.1c-0.2-0.2-0.4-0.4-0.5-0.6c0-0.1,0.1-0.3,0.2-0.2c0.3,0.1,0.4,0.3,0.6,0.5
			C108.6,103,108.3,103.3,108.1,103.1z"/>
		<path id="XMLID_219_" class="st0" d="M107.1,102.3c-0.3,0.1-0.6,0-0.7-0.3c0-0.1,0.1-0.2,0.1-0.2c0.1,0,0.3,0,0.4,0
			C107.3,101.8,107.4,102.2,107.1,102.3z"/>
		<path id="XMLID_220_" class="st0" d="M105.1,102.5c-0.1-0.1-0.1-0.2-0.1-0.3c0.1-0.1,0.1-0.1,0.2-0.2c0.1,0,0.2-0.1,0.3-0.1
			c0.2-0.1,0.4,0.1,0.3,0.3C105.6,102.4,105.3,102.6,105.1,102.5z"/>
		<path id="XMLID_221_" class="st0" d="M104.1,103.1c-0.2,0-0.4,0-0.5-0.2c-0.1-0.2,0-0.4,0.2-0.5c0.1,0,0.2-0.1,0.3-0.1
			c0.2,0,0.3,0.1,0.3,0.3C104.5,102.8,104.3,103.1,104.1,103.1z"/>
		<path id="XMLID_222_" class="st0" d="M137.6,119.1c-0.2-0.3,0.2-0.6,0.4-0.4c0.2,0.2,0.3,0.5,0.2,0.7c0,0.1-0.1,0.2-0.2,0.2
			c-0.1,0-0.2-0.1-0.3-0.2C137.7,119.4,137.7,119.2,137.6,119.1z"/>
		<path id="XMLID_223_" class="st0" d="M136.9,120.6c0.1-0.1,0.2-0.1,0.2-0.2c0.1-0.2,0.5-0.2,0.5,0.1c0,0.3-0.2,0.5-0.5,0.5
			c-0.1,0-0.2-0.1-0.3-0.2c0,0,0,0,0,0C136.8,120.8,136.8,120.7,136.9,120.6z"/>
		<path id="XMLID_224_" class="st0" d="M135.7,121.2c0.3-0.3,0.7,0.1,0.4,0.4c-0.1,0.1-0.2,0.2-0.4,0.2c-0.1,0-0.3,0-0.3-0.1
			c-0.1-0.1-0.1-0.2,0-0.3C135.5,121.3,135.6,121.3,135.7,121.2z"/>
		<path id="XMLID_225_" class="st0" d="M134,121.1c0.1,0.1,0.2,0.2,0.3,0.3c0.2,0.3-0.1,0.7-0.4,0.5c-0.1-0.1-0.2-0.1-0.3-0.3
			C133.3,121.3,133.7,120.9,134,121.1z"/>
		<path id="XMLID_226_" class="st0" d="M102.9,133.3c0.4,0,0.4,0.5,0,0.6c-0.2,0-0.5,0.1-0.7-0.1c-0.1-0.1-0.1-0.2,0-0.3
			C102.4,133.3,102.7,133.3,102.9,133.3z"/>
		<path id="XMLID_227_" class="st0" d="M101,135.3c-0.3-0.3,0.3-0.7,0.5-0.8c0.2-0.1,0.4,0.1,0.3,0.3
			C101.8,135.1,101.3,135.6,101,135.3z"/>
		<path id="XMLID_228_" class="st0" d="M100.9,136.8c-0.1,0.1-0.2,0.1-0.3,0c-0.3-0.2-0.1-0.5,0-0.7c0.2-0.2,0.5,0,0.4,0.2
			C101.1,136.4,101.1,136.6,100.9,136.8z"/>
		<path id="XMLID_229_" class="st0" d="M101,137.5c0.2,0.1,0.4,0.2,0.3,0.5c0,0.3-0.3,0.3-0.5,0.1c-0.1-0.1-0.1-0.1-0.1-0.2
			C100.6,137.7,100.8,137.4,101,137.5z"/>
		<path id="XMLID_230_" class="st0" d="M101.8,138.8c0.1-0.1,0.3-0.1,0.4,0c0.1,0.1,0.2,0.2,0.3,0.3c0.2,0.5-0.7,0.6-0.7,0.1
			c0-0.1,0-0.1,0,0C101.7,139.1,101.7,138.9,101.8,138.8z"/>
	</g>
	<path id="XMLID_233_" class="st0" d="M145.3,141c2,0.7,4.1,1.9,5.4,3.6c0.2,0.3-0.2,0.6-0.4,0.4c-0.9-0.6-1.7-1.3-2.6-1.9
		c-0.8-0.5-1.7-1-2.6-1.4C144.6,141.5,144.9,140.9,145.3,141z"/>
	<path id="XMLID_234_" class="st0" d="M156.5,150.8c1.4,1.6,2.9,3.3,3.9,5.2c0.2,0.3-0.2,0.6-0.4,0.4c-1.6-1.5-2.9-3.3-4.2-5.1
		C155.5,150.8,156.2,150.4,156.5,150.8z"/>
	<path id="XMLID_235_" class="st0" d="M164.7,163.2c2.3,1.8,4.3,4.6,4.4,7.6c0,0.4-0.5,0.5-0.7,0.1c-1.1-2.7-2.2-5.1-4.1-7.3
		C164,163.3,164.4,163,164.7,163.2z"/>
	<path id="XMLID_236_" class="st0" d="M170.7,175.8c1.8,1.7,3.5,4.4,2.9,7c-0.1,0.3-0.6,0.4-0.7,0c-0.6-2.4-0.8-4.6-2.7-6.4
		C169.9,176,170.4,175.5,170.7,175.8z"/>
	<path id="XMLID_237_" class="st0" d="M175.7,195.8c-0.2-2.3-0.2-4.4-1.2-6.5c-0.2-0.5,0.6-0.7,0.8-0.3c1,2,1.8,4.6,1.1,6.9
		C176.4,196.3,175.8,196.3,175.7,195.8z"/>
	<path id="XMLID_238_" class="st0" d="M174.4,207.3c0.2-0.7,0.6-1.3,0.8-2c0.2-0.7,0.3-1.5,0.2-2.3c-0.1-0.4,0.6-0.6,0.7-0.1
		c0.3,1.5,0.3,3.8-1.2,4.8C174.7,207.8,174.3,207.6,174.4,207.3z"/>
	<path id="XMLID_239_" class="st0" d="M147.1,253.5c0.3-0.3,0.7-0.5,1.1-0.8c0.4-0.3,0.7-0.7,1-1.2c0.2-0.4,0.9-0.1,0.6,0.3
		c-0.5,0.9-1.4,2-2.6,2.1C147,254,147,253.7,147.1,253.5z"/>
	<path id="XMLID_240_" class="st0" d="M136.5,263.5c0.3-0.3,0.8-0.4,1.2-0.7c0.4-0.3,0.8-0.7,1-1.1c0.2-0.4,0.8-0.1,0.6,0.3
		c-0.4,1-1.5,2.2-2.7,2.1C136.3,264.1,136.3,263.7,136.5,263.5z"/>
	<path id="XMLID_241_" class="st0" d="M129.1,273.3c0-1.5,1.4-2.8,2.5-3.5c0.4-0.2,0.7,0.3,0.4,0.5c-0.5,0.4-1,0.9-1.4,1.5
		c-0.4,0.5-0.6,1.1-1,1.6C129.5,273.7,129.1,273.6,129.1,273.3z"/>
	<path id="XMLID_242_" class="st0" d="M124.8,283c0-1.3,0.6-2.7,1-4c0.1-0.4,0.8-0.3,0.7,0.1c-0.3,1.3-0.4,2.8-1.1,3.9
		C125.3,283.4,124.8,283.4,124.8,283z"/>
	<path id="XMLID_243_" class="st0" d="M124.6,287.8c-0.1-0.4,0.5-0.6,0.6-0.2c0.4,1,1.1,2.1,1.1,3.2c0,0.3-0.4,0.5-0.6,0.2
		C125.1,290.2,124.9,288.9,124.6,287.8z"/>
	<path id="XMLID_244_" class="st0" d="M127.8,295.4c0.8,0.8,1.8,1.8,2.2,2.9c0.1,0.3-0.3,0.5-0.5,0.3c-0.9-0.7-1.6-1.9-2.2-2.9
		C127.2,295.5,127.6,295.1,127.8,295.4z"/>
	<path id="XMLID_245_" class="st0" d="M131.5,299.8c0.8-0.1,1.5,0.6,1.3,1.3c-0.1,0.5-1,0.5-1-0.1c0-0.2-0.1-0.5-0.3-0.5
		C131.1,300.5,131,299.8,131.5,299.8z"/>
	<path id="XMLID_246_" class="st0" d="M74.3,127.7c1.2-0.5,2.7-0.5,4-0.6c0.4,0,0.5,0.6,0.1,0.7c-1.3,0.3-2.7,0.7-4,0.6
		C74,128.3,73.9,127.9,74.3,127.7z"/>
	<path id="XMLID_247_" class="st0" d="M64.8,126.9c0.7,0.1,1.3,0.3,2,0.4c0.7,0.1,1.4,0.1,2.2-0.1c0.4-0.1,0.5,0.6,0.1,0.7
		c-1.4,0.3-3.3,0.4-4.5-0.5C64.2,127.3,64.5,126.9,64.8,126.9z"/>
	<path id="XMLID_248_" class="st0" d="M55.2,124.1c-0.1-0.3,0.2-0.5,0.5-0.3c0.5,0.4,0.9,1,1.5,1.4c0.6,0.4,1.3,0.7,2.1,0.9
		c0.4,0.1,0.3,0.7-0.1,0.6C57.6,126.5,55.5,125.7,55.2,124.1z"/>
	<path id="XMLID_249_" class="st0" d="M47.2,116.7c1.3,1.4,2.3,2.8,3.9,3.9c0.3,0.2,0,0.7-0.4,0.5c-1.6-1-3.2-2.3-4-4.1
		C46.6,116.8,47,116.5,47.2,116.7z"/>
	<path id="XMLID_250_" class="st0" d="M40.3,107.9c1,0.8,1.7,2.3,2.4,3.4c0.2,0.4-0.3,0.7-0.6,0.4c-0.8-1-2-2.1-2.4-3.4
		C39.6,107.9,40,107.7,40.3,107.9z"/>
	<path id="XMLID_251_" class="st0" d="M35.2,98.7c-0.1-0.3,0.3-0.6,0.5-0.4c0.9,0.9,1.5,2.4,2,3.6c0.2,0.4-0.4,0.7-0.7,0.3
		C36.4,101.2,35.5,99.9,35.2,98.7z"/>
	<path id="XMLID_252_" class="st0" d="M33.3,91.7c-0.3-0.5-0.7-0.9-0.9-1.4c-0.1-0.3,0.3-0.6,0.6-0.5c1.3,0.6,1.8,2.6,1.9,3.9
		c0,0.6-0.8,0.6-0.9,0.1C33.9,93,33.7,92.3,33.3,91.7z"/>
	<path id="XMLID_253_" class="st0" d="M29.9,19.3c1.2,1.1,2.1,2.8,2.9,4.3c0.2,0.3-0.2,0.6-0.5,0.3c-1.1-1.3-2.3-2.7-3-4.3
		C29.3,19.4,29.7,19.1,29.9,19.3z"/>
	<path id="XMLID_254_" class="st0" d="M21,11.7c0.7,0.3,1.4,0.8,2,1.2c0.7,0.5,1.4,1,2,1.5c0.3,0.2,0,0.7-0.3,0.5
		c-0.7-0.4-1.4-0.8-2.2-1.3c-0.6-0.4-1.4-0.8-1.9-1.4C20.4,11.9,20.6,11.6,21,11.7z"/>
	<path id="XMLID_255_" class="st0" d="M9.8,8.4c1.6,0.2,3.1,0.9,4.6,1.5c0.3,0.1,0.1,0.6-0.2,0.5C12.7,10,11.1,9.7,9.6,9
		C9.3,8.8,9.5,8.4,9.8,8.4z"/>
	<path id="XMLID_256_" class="st0" d="M1.9,9c0-0.1,0.1-0.3,0.2-0.3c0.4-0.1,0.7,0.2,1,0.4C3.4,9.4,3.7,9.7,4,10
		c0.3,0.2,0,0.7-0.3,0.5c-0.3-0.2-0.7-0.4-1-0.7C2.3,9.6,1.9,9.4,1.9,9z"/>
</g>
<g id="XMLID_182_">
	<path id="XMLID_470_" class="st0" d="M37.7,51.2c0.1-0.4,0.3-0.8,0.4-1.3c0,0,0-0.1,0-0.1c1.1-3.9,1.8-10.1-3.3-10.3
		c-3.8-0.2-6.3,2.4-8.1,5.5c0,0,0,0,0,0c-0.9,1.5-1.6,3.1-2.2,4.5c-1.4,3.4-2.9,6.8-4.4,10.2c-1.5,3.3-3,6.7-4.3,10.1
		c-0.1,0-0.2,0.1-0.2,0.3c0.6,3.1,1.1,6.3,1.7,9.4c0,0.3,0.3,0.4,0.5,0.2c1.1-1,2.2-1.9,3.5-2.7c1.2-0.7,2.5-1.2,3.8-1.9
		c1.3-0.7,1.8-1.7,2.4-3c0.7-1.5,1.5-2.9,2.2-4.4c1.5-2.9,2.9-5.9,4.4-8.8C35.4,56.3,36.7,53.9,37.7,51.2z M32.6,40.3
		c1.2-0.4,2.6-0.5,3.7,0c1.4,0.6,1.8,2.1,2,3.5c0.2,1.6,0,3.2-0.4,4.8c-3.5-1.4-7-2.8-10.6-3.7C28.5,42.9,30.2,41,32.6,40.3z
		 M17.9,78.8c-0.2-1.1-0.4-2.3-0.6-3.4c0.7-0.4,1.3-0.9,2.1-0.5c0.8,0.4,0.8,1.2,1,2C19.5,77.4,18.6,78.1,17.9,78.8z M24.5,74.7
		c-1.2,0.6-2.5,1.1-3.6,1.8c0-0.8-0.8-1.9-1.4-2.1c-0.7-0.3-1.8-0.1-2.4,0.5c-0.3-1.6-0.6-3.3-0.9-4.9c0,0,0-0.1,0-0.1
		c0.4-0.4,0.8-0.9,1.2-1.3c0.4-0.3,0.9-0.8,1.5-0.9c1.4-0.1,0.1,2.3,0.2,3c0,0.3,0.3,0.3,0.5,0.1c0.3-0.5,0.7-1,1.1-1.5
		c0.3-0.3,0.9-1,1.4-1.2c1.3-0.3,0.8,1.4,0.6,1.9c-0.1,0.6-0.3,1.1-0.5,1.6c0,0.1-0.1,0.2-0.1,0.4c-0.1,0.3,0.3,0.5,0.4,0.2
		c0.1-0.1,0.1-0.3,0.2-0.4c0.2-0.4,0.4-0.8,0.7-1.1c0.3-0.3,1-1.1,1.5-1.1c1,0,0.2,1.5,0.1,1.8c-0.2,0.6-0.5,1.2-0.9,1.7
		c-0.1,0.2,0.2,0.5,0.4,0.2c0.2-0.2,1.8-2.8,2-2.7c0.2,0.1,0.1,0.9,0.1,1c-0.1,0.6-0.3,1.2-0.5,1.8C25.6,74,25.1,74.4,24.5,74.7z
		 M33.9,58.1c-1.4,2.7-2.7,5.4-4.1,8.1c-0.8,1.5-1.5,3-2.3,4.5c-0.2,0.4-0.4,0.8-0.6,1.2c0-0.2,0.1-0.3,0.1-0.5c0-0.3,0-1-0.3-1.2
		c-0.1-0.1-0.3-0.1-0.4,0c0.4-0.7,0.7-1.3,1.1-2c0.7-1.3,1.5-2.7,2.1-4c0.1-0.2-0.2-0.3-0.3-0.1c-0.8,1.2-1.4,2.6-2.1,3.9
		c-0.4,0.8-0.9,1.6-1.3,2.4c0.1-0.5,0.2-1-0.3-1.2c-0.6-0.3-1.5,0.3-1.9,0.7c1.6-2.9,3-5.9,4.2-9c0.1-0.2-0.2-0.3-0.2-0.1
		c-1.4,2.9-2.7,5.9-4.1,8.9c0-0.2,0.1-0.4,0.1-0.6c0.1-0.6,0-1.4-0.6-1.6c-0.7-0.2-1.4,0.5-1.9,0.9c-0.3,0.3-0.5,0.5-0.8,0.8
		c0.7-1.5,1.4-3,2.1-4.5c0.1-0.2-0.1-0.2-0.2-0.1c-0.7,1.2-1.3,2.4-1.8,3.7c0,0,0-0.1,0-0.1c0-0.5-0.3-1.1-0.9-1.1
		c-0.7-0.1-1.4,0.4-1.9,0.9c-0.3,0.2-0.5,0.5-0.8,0.7c1.1-2.4,2.1-4.8,3.2-7.1c1.2-2.7,2.4-5.5,3.6-8.2c0.4-1,0.8-2,1.2-2.9
		c0.3,0.2,0.9,0.4,1,0.4c0.4,0.2,0.8,0.3,1.2,0.5c-1.4,3.2-2.8,6.5-4,9.8c-0.1,0.2,0.2,0.3,0.3,0.1c1.5-3.2,2.7-6.5,4-9.8
		c0,0,0,0,0,0c1,0.4,2,0.8,2.9,1.1c0.3,0.1,0.6,0.2,0.9,0.3c0,0,0,0,0,0c-0.9,2.1-1.8,4.2-2.7,6.3c-0.1,0.2,0.2,0.3,0.3,0.1
		c0.9-2.1,1.9-4.1,2.7-6.2c0,0,0,0,0-0.1c0.6,0.2,1.2,0.5,1.8,0.7c0.1,0,0.2,0.1,0.3,0.1c-0.4,0.8-0.7,1.6-1,2.4
		c-0.3,0.9-0.8,1.8-1.1,2.7c-0.1,0.2,0.2,0.3,0.2,0.1c0.9-1.5,1.4-3.4,2.1-5.1c0.7,0.3,1.3,0.5,2,0.7C35,55.8,34.5,56.9,33.9,58.1z
		 M33,53.1c-1-0.4-2-0.7-2.9-1.1c-1-0.4-2-0.7-2.9-1.1c-0.5-0.2-1-0.4-1.5-0.5c-0.3-0.1-0.6-0.1-0.8-0.2c0-0.1,0.1-0.2,0.1-0.3
		c0.5,0.2,1.1,0.4,1.7,0.5c0.1,0,0.2-0.2,0.1-0.2c-0.5-0.2-1.1-0.4-1.6-0.5c0.5-1.3,1.1-2.5,1.7-3.7c0.5,0.2,1,0.4,1.6,0.5
		c0.1,0,0.2-0.2,0.1-0.3c-0.5-0.2-1-0.3-1.5-0.5c0.1-0.1,0.1-0.2,0.2-0.3c3.6,1.2,7.2,2.4,10.7,3.8c0,0.1-0.1,0.2-0.1,0.4
		c-0.4-0.2-0.8-0.3-1.2-0.5c-0.1,0-0.1,0.1-0.1,0.1c0.4,0.2,0.8,0.4,1.2,0.6c-0.1,0.5-0.3,0.9-0.5,1.4c-0.3,0.8-0.7,1.7-1.1,2.5
		c-1-0.4-2.1-0.8-3.1-1.2c-0.1,0-0.2,0.1-0.1,0.2c1,0.4,2,0.9,3.1,1.2c0,0.1-0.1,0.2-0.1,0.3C34.9,53.7,33.9,53.4,33,53.1z"/>
	<path id="XMLID_469_" class="st0" d="M31.8,50.7c-0.3-0.1-0.6-0.2-0.8-0.2c0.5-0.3,0.9-0.5,1.3-0.9c0.2-0.2,0.5-0.5,0.4-0.8
		c-0.1-0.3-0.5-0.4-0.8-0.3c-0.3,0.1-0.6,0.3-0.7,0.6c0,0.1,0.1,0.1,0.1,0c0.2-0.2,0.4-0.4,0.7-0.4c0.2,0,0.4,0.1,0.4,0.3
		c0,0.1-0.1,0.2-0.2,0.3c-0.4,0.5-1.1,0.8-1.6,1.1c-0.1,0.1-0.2,0.2,0,0.3c0.4,0.1,0.8,0.3,1.2,0.4C32,51.1,32,50.7,31.8,50.7z"/>
	<path id="XMLID_466_" class="st0" d="M33.4,48.2c-0.5-0.9-1.8-0.8-2.5-0.1c-0.7,0.7-1.3,2.3-0.6,3.2c0.5,0.8,1.6,0.8,2.2,0.2
		c0,0,0,0,0,0c0,0,0,0,0,0c0,0,0.1-0.1,0.1-0.1c0,0,0-0.1,0-0.1C33.2,50.5,33.8,49,33.4,48.2z M32.4,51.2c-1,0.9-2.3,0.2-2.1-1.1
		c0.1-0.7,0.4-1.6,1-2c0.5-0.3,1.1-0.4,1.6,0c0.3,0.3,0.3,0.7,0.3,1.1C33.1,49.9,32.8,50.5,32.4,51.2C32.5,51.2,32.4,51.2,32.4,51.2
		z"/>
	<path id="XMLID_465_" class="st0" d="M37.1,43.3c0.2,0.1,0.5,0.3,0.7,0.2c0.1,0,0.1-0.1,0.1-0.2c-0.1-0.1-0.2-0.1-0.3-0.1
		c-0.1,0-0.2-0.1-0.3-0.2C37.1,43,37,43.2,37.1,43.3z"/>
	<path id="XMLID_464_" class="st0" d="M37.7,44.3c0.1,0,0.2-0.1,0.1-0.2c-0.3-0.2-0.7-0.4-1-0.5c-0.1-0.1-0.3,0.2-0.1,0.2
		C37,44,37.3,44.3,37.7,44.3z"/>
	<path id="XMLID_463_" class="st0" d="M37.7,45.2c0.1,0,0.2-0.1,0.1-0.1c-0.2-0.3-0.7-0.4-1.1-0.5c-0.2,0-0.2,0.2,0,0.3
		c0.2,0,0.4,0.1,0.5,0.2C37.4,45.1,37.5,45.2,37.7,45.2z"/>
	<path id="XMLID_462_" class="st0" d="M37.1,45.8c0.1,0.1,0.2,0.1,0.4,0.1c0.1,0,0.1-0.1,0.1-0.2c-0.1-0.2-0.5-0.3-0.7-0.4
		c-0.2-0.1-0.3,0.2-0.1,0.3C36.8,45.7,36.9,45.8,37.1,45.8z"/>
	<path id="XMLID_461_" class="st0" d="M37.4,46.4c-0.1-0.2-0.4-0.3-0.6-0.4c-0.2-0.1-0.4,0.2-0.2,0.3c0.2,0.1,0.4,0.2,0.6,0.3
		C37.3,46.7,37.4,46.5,37.4,46.4z"/>
	<path id="XMLID_460_" class="st0" d="M36.4,46.7c-0.2-0.1-0.4,0.2-0.2,0.3c0.2,0.1,0.4,0.2,0.6,0.2c0.1,0,0.1-0.1,0.1-0.2
		C36.9,46.8,36.6,46.7,36.4,46.7z"/>
	<path id="XMLID_459_" class="st0" d="M36.5,47.2c-0.1-0.1-0.2-0.1-0.3-0.2c-0.2-0.1-0.4,0.1-0.2,0.2c0.1,0.1,0.3,0.2,0.5,0.1
		C36.5,47.4,36.5,47.2,36.5,47.2z"/>
</g>
<g id="XMLID_231_">
	<path id="XMLID_403_" class="st0" d="M173,221.3c-2.1-2.8-5.5-4.2-8.9-3.4c-2.8,0.6-5.2,2.8-6.1,5.5c-0.3-1.2-0.8-2.4-1.5-3.5
		c5.8-3.1,9-10.1,7.4-16.5c-0.1-0.2-0.3-0.3-0.5-0.2c-4.4,3.4-7.3,8.4-7.9,13.9c-1.3-3.3-2.7-6.6-4.4-9.7c-0.1-0.2-0.5-0.2-0.6,0
		c-0.7,2-1.8,3.7-3.2,5.3c-0.1,0.1-0.1,0.4,0,0.5c4.3,3,7.5,7.1,9.6,11.8c-0.8-1-1.8-1.8-3-2.3c-1.4-0.6-3-0.6-4.5-0.2
		c-3.3,0.9-5.5,3.8-6,7.2c-1.1,8.3,6.9,14.5,13.9,16.9c2,0.7,4.4,1.5,6.5,1.1c1.2-0.3,2.4-1.2,2.6-2.4c0.5,0.5,1.3,0.7,2,0.7
		c1.4,0,2.4-0.9,2.7-2.3c0.2-1,0.3-2,0.6-2.9c0.3-1.1,0.8-2.1,1.2-3.1c0.8-1.8,1.6-3.7,2-5.6C175.5,228.4,175.3,224.4,173,221.3z
		 M159.1,210.6c-0.1-0.3-0.3-0.7-0.5-1c1.2-2.1,2.8-3.9,4.7-5.4c0,0,0,0,0,0c-1.1,2.4-2.1,4.8-3.2,7.1c-0.1,0.3-0.3,0.6-0.4,0.9
		c-0.1-0.2-0.2-0.6-0.3-0.8C159.3,211.1,159.2,210.8,159.1,210.6z M160.2,211.8c1.1-2.3,2.3-4.7,3.2-7.1c0.4,2.3,0.1,4.7-0.7,7
		c-0.4,0.1-0.8,0.2-1.3,0.3c-0.4,0.1-1,0.4-1.5,0.3C160,212.1,160.1,212,160.2,211.8z M155.3,218.8c0.1,0.4,0.6,0.2,0.6-0.1
		c0.1-3.1,1-6.1,2.5-8.8c0.3,0.9,0.7,1.8,1.1,2.7c-0.4,0.8-0.8,1.6-1.2,2.4c-0.6,1.2-1.1,2.5-2,3.5c0,0,0,0.1,0.1,0.1
		c1-0.5,1.5-2,1.9-2.9c0.5-1,1-2,1.5-2.9c0.9-0.2,1.8-0.4,2.8-0.6c-1.3,3.2-3.6,5.9-6.7,7.4c-0.2,0.1-0.3,0.3-0.2,0.5
		c1,1.5,1.6,3.1,1.8,4.9c0,0,0,0,0,0c0,0.1,0,0.2,0,0.2c-1.9-4.9-5.2-9.1-9.4-12.1c1.3-0.5,2.6-1,3.1-2.5c0.1-0.2,0.1-0.5,0.2-0.9
		C152.9,212.6,154.2,215.6,155.3,218.8z M150.8,208.4c0.1,0.2,0.2,0.4,0.3,0.6c0,0.4,0,0.8-0.1,1c-0.1,0.5-0.4,1-0.7,1.4
		c-0.5,0.6-1.3,0.9-2,1.1C149.4,211.3,150.2,209.9,150.8,208.4z M174.4,230.2c-0.4,3.4-2,6.2-3.2,9.3c-0.3,0.8-0.5,1.6-0.7,2.4
		c-0.2,0.9-0.1,1.9-0.7,2.7c-1,1.2-3.2,0.7-3.7-0.7c-0.2-0.4-0.8-0.2-0.6,0.2c0.4,0.9-0.1,1.9-0.9,2.5c-0.9,0.6-2,0.6-3,0.5
		c-1.7-0.2-3.4-0.7-5-1.4c-3.2-1.2-6.3-3.1-8.7-5.5c-2.4-2.4-4-5.6-4-9c0-3.2,1.6-6.3,4.6-7.6c1.5-0.7,3.2-0.9,4.8-0.4
		c1.8,0.5,3.1,2,4.3,3.4c0.1,0.1,0.2,0.1,0.3,0c0.1,0,0.3-0.1,0.3-0.3c0-3.2,2.1-6.3,5.1-7.4c3.1-1.2,6.6-0.3,8.8,2.3
		C174.1,223.6,174.8,227,174.4,230.2z"/>
	<path id="XMLID_402_" class="st0" d="M146.8,225.8c0.2-0.2,0.5-0.3,0.7-0.5c0.1-0.1,0-0.2-0.1-0.2c-0.3,0.1-0.5,0.3-0.7,0.5
		C146.5,225.7,146.6,225.9,146.8,225.8z"/>
	<path id="XMLID_401_" class="st0" d="M146.3,226.6c0.4-0.3,0.9-0.5,1.3-0.8c0.1-0.1,0-0.2-0.1-0.2c-0.5,0-1,0.4-1.4,0.7
		C146,226.5,146.1,226.8,146.3,226.6z"/>
	<path id="XMLID_400_" class="st0" d="M145.6,227.9c0.7-0.5,1.5-0.9,2.2-1.5c0.1-0.1,0-0.2-0.1-0.2c-0.8,0.3-1.5,0.9-2.2,1.5
		C145.3,227.7,145.5,228,145.6,227.9z"/>
	<path id="XMLID_399_" class="st0" d="M145.3,229.1c0.8-0.6,1.7-1.1,2.4-1.7c0.1-0.1,0-0.2-0.1-0.2c-0.9,0.4-1.7,1.1-2.5,1.7
		C145,228.9,145.1,229.2,145.3,229.1z"/>
	<path id="XMLID_398_" class="st0" d="M145.3,229.9c0.7-0.6,1.6-1,2.3-1.5c0.1-0.1,0-0.3-0.1-0.3c-0.8,0.3-1.6,1-2.3,1.5
		C144.9,229.8,145.1,230,145.3,229.9z"/>
	<path id="XMLID_397_" class="st0" d="M145.6,230.9c0.7-0.7,1.6-1.2,2.3-1.9c0.1-0.1,0-0.3-0.1-0.2c-1,0.4-1.8,1.2-2.5,1.9
		C145.1,230.9,145.4,231.1,145.6,230.9z"/>
	<path id="XMLID_396_" class="st0" d="M145.7,231.9c0.6-0.6,1.4-1.1,2-1.8c0.1-0.1-0.1-0.3-0.2-0.2c-0.8,0.4-1.5,1.2-2.1,1.8
		C145.3,231.9,145.5,232.1,145.7,231.9z"/>
	<path id="XMLID_395_" class="st0" d="M146,233c0.5-0.6,1.2-1.1,1.8-1.7c0.1-0.1,0-0.3-0.1-0.2c-0.8,0.3-1.4,1-1.9,1.6
		C145.6,233,145.9,233.2,146,233z"/>
	<path id="XMLID_394_" class="st0" d="M146.3,234.1c0.2-0.3,0.4-0.5,0.7-0.8c0.2-0.2,0.5-0.4,0.8-0.7c0.1-0.1,0-0.3-0.2-0.2
		c-0.6,0.2-1.2,0.9-1.6,1.4C145.8,234,146.1,234.3,146.3,234.1z"/>
	<path id="XMLID_393_" class="st0" d="M148.2,233.5c0.1-0.1,0-0.2-0.1-0.2c-0.6,0.2-1.2,0.8-1.6,1.3c-0.2,0.2,0.1,0.4,0.3,0.2
		c0.2-0.3,0.5-0.5,0.7-0.7C147.7,234,148,233.8,148.2,233.5z"/>
	<path id="XMLID_392_" class="st0" d="M147.3,235.7c0.3-0.3,0.6-0.5,0.8-0.9c0.1-0.1-0.1-0.2-0.2-0.2c-0.4,0.1-0.7,0.5-1,0.8
		C146.9,235.6,147.2,235.8,147.3,235.7z"/>
	<path id="XMLID_391_" class="st0" d="M147.7,236.6c0.2-0.2,0.3-0.3,0.5-0.5c0.2-0.1,0.3-0.3,0.4-0.4c0.1-0.1-0.1-0.2-0.2-0.2
		c-0.2,0.1-0.3,0.3-0.5,0.4c-0.2,0.2-0.3,0.3-0.5,0.5C147.4,236.5,147.6,236.7,147.7,236.6z"/>
	<path id="XMLID_390_" class="st0" d="M148.8,236.6c0.1-0.1,0-0.2-0.1-0.2c-0.4,0.1-0.7,0.4-0.9,0.7c-0.1,0.1,0.1,0.3,0.2,0.2
		c0.1-0.1,0.3-0.3,0.4-0.4C148.5,236.9,148.7,236.8,148.8,236.6z"/>
	<path id="XMLID_389_" class="st0" d="M149,237.1c-0.3,0.1-0.5,0.4-0.7,0.5c-0.2,0.1,0,0.4,0.2,0.3c0.2-0.2,0.5-0.4,0.7-0.7
		C149.2,237.2,149.1,237.1,149,237.1z"/>
	<path id="XMLID_388_" class="st0" d="M149,238.7c0.1-0.1,0.3-0.3,0.4-0.5c0-0.1,0-0.2-0.1-0.2c-0.2,0.1-0.4,0.2-0.5,0.3
		C148.6,238.6,148.8,238.9,149,238.7z"/>
	<path id="XMLID_387_" class="st0" d="M150.1,238.7c0-0.1-0.1-0.3-0.2-0.2c-0.2,0-0.3,0.2-0.4,0.3c-0.1,0.1-0.3,0.2-0.4,0.4
		c-0.2,0.2,0.1,0.4,0.3,0.3c0.1-0.1,0.3-0.2,0.4-0.4C149.9,239,150.1,238.9,150.1,238.7z"/>
	<path id="XMLID_386_" class="st0" d="M150.6,239.7c0-0.1-0.1-0.1-0.1-0.1c-0.3,0.1-0.5,0.3-0.6,0.5c-0.2,0.2,0.1,0.4,0.3,0.2
		C150.3,240.1,150.6,239.9,150.6,239.7z"/>
	<path id="XMLID_385_" class="st0" d="M151.3,240.2c-0.2,0-0.4,0.2-0.6,0.3c-0.2,0.1,0,0.4,0.2,0.3c0.2-0.1,0.4-0.2,0.5-0.4
		C151.5,240.3,151.4,240.2,151.3,240.2z"/>
	<path id="XMLID_384_" class="st0" d="M152,240.7c-0.2,0.1-0.4,0.3-0.5,0.4c-0.2,0.2,0.1,0.4,0.3,0.3c0.2-0.1,0.3-0.3,0.4-0.5
		C152.2,240.8,152.1,240.6,152,240.7z"/>
	<path id="XMLID_383_" class="st0" d="M152.8,241.2c0-0.1,0-0.1-0.1-0.1c-0.2,0-0.4,0.1-0.5,0.2c-0.2,0.1,0,0.4,0.2,0.3
		C152.6,241.5,152.8,241.4,152.8,241.2z"/>
	<path id="XMLID_382_" class="st0" d="M153.1,241.7c-0.2,0-0.4,0.2-0.5,0.4c-0.1,0.2,0.1,0.4,0.3,0.2c0.1-0.1,0.3-0.2,0.4-0.4
		C153.3,241.8,153.2,241.6,153.1,241.7z"/>
	<path id="XMLID_381_" class="st0" d="M153.6,242c-0.2,0-0.4,0.2-0.5,0.4c-0.2,0.2,0.1,0.4,0.3,0.2c0.1-0.1,0.3-0.2,0.4-0.4
		C153.8,242.1,153.7,242,153.6,242z"/>
	<path id="XMLID_380_" class="st0" d="M154.3,242.6c-0.3,0-0.5,0.2-0.6,0.4c-0.1,0.2,0.1,0.4,0.3,0.3c0.1-0.2,0.4-0.3,0.4-0.5
		C154.5,242.7,154.4,242.6,154.3,242.6z"/>
	<path id="XMLID_379_" class="st0" d="M154.8,243.2c-0.1,0-0.2,0.1-0.3,0.2c-0.2,0.2,0,0.5,0.2,0.3c0.1-0.1,0.2-0.2,0.3-0.3
		C155,243.3,154.9,243.2,154.8,243.2z"/>
	<path id="XMLID_378_" class="st0" d="M155.7,243.7c-0.1-0.2-0.4,0-0.6,0.1c-0.2,0.1,0,0.5,0.2,0.4
		C155.4,244,155.8,243.9,155.7,243.7z"/>
	<path id="XMLID_377_" class="st0" d="M156.1,244c-0.1,0-0.1,0.1-0.2,0.1c-0.2,0-0.2,0.4,0,0.4c0.2,0,0.3-0.1,0.4-0.3
		C156.3,244.1,156.2,244,156.1,244z"/>
	<path id="XMLID_376_" class="st0" d="M156.7,244.2c-0.3,0.1-0.1,0.6,0.2,0.5c0.2-0.1,0.3-0.1,0.4-0.3c0-0.1,0-0.2-0.1-0.2
		C157,244.1,156.8,244.1,156.7,244.2z"/>
</g>
</svg>
