<?xml version="1.0" encoding="utf-8"?>
<!-- Generator: Adobe Illustrator 19.0.0, SVG Export Plug-In . SVG Version: 6.00 Build 0)  -->
<svg version="1.1" id="OBJECTS" xmlns="http://www.w3.org/2000/svg" xmlns:xlink="http://www.w3.org/1999/xlink" x="0px" y="0px"
	 viewBox="0 0 228.6 271.9" style="enable-background:new 0 0 228.6 271.9;" xml:space="preserve">
<style type="text/css">
	.st0{fill:#FFFFFF;}
</style>
<g id="XMLID_348_">
	<g id="XMLID_258_">
		<path id="XMLID_411_" class="st0" d="M97,170.4c2.1-1.2,4.3-2.1,6.7-2.6c0.3-0.1,0.5-0.4,0.3-0.6c-1.1-1.9-2.1-3.9-3.2-5.8
			c1.5-0.7,1.4-2.7,0.7-4.1c-1.3-2.8-3-5.4-4.5-8.1c-3-5.4-6-10.8-9-16.2c0.6-0.5,0.6-1.6,0.2-2.4c-0.6-1.3-1.4-2.4-2.1-3.6
			c-0.7-1.2-1.4-2.3-2-3.5c-0.1-0.2-0.4-0.4-0.6-0.2c-3.4,2-6.8,4-10.2,5.9c-0.2,0.1-0.3,0.3-0.3,0.5c0.4,2.5,1,5.1,2.8,6.9
			c0.7,0.7,1.6,1.3,2.7,1.5c0.3,0.1,0.6,0,0.8,0.2c0.2,0.2,0.3,0.8,0.4,1c0.3,0.7,0.6,1.5,1,2.2c0.1,0.2,0.4,0.4,0.6,0.2
			c2.7-1.6,6.6-0.8,8.1,2.1c0.7,1.4,0.9,3,0.4,4.5c-0.5,1.6-1.5,2.3-2.5,3.5c-1,1.1-0.6,2.4-0.2,3.7c0.5,1.4,1,2.8,1.6,4.1
			c1.2,2.4,2.8,4.4,5.3,5.4c0,0,0.1,0,0.1,0c0.6,1.8,1.3,3.5,2,5.2C96.5,170.4,96.8,170.5,97,170.4z M101.1,163.5
			c-1.9,0.7-3.7,1.4-5.6,2c-0.2-0.4-0.3-0.7-0.5-1.1c0-0.2-0.1-0.3-0.3-0.4c-3.1-1.4-4.7-4.4-5.8-7.4c-0.3-0.8-0.8-1.7-0.9-2.6
			c-0.2-1.3,0.6-1.9,1.4-2.7c0.9-0.9,1.4-2,1.7-3.2c0.6-2.5-0.2-5.3-2.3-6.9c-2-1.5-4.9-1.8-7.1-0.7c-0.5-1.1-0.9-2.1-1.4-3.2
			c-0.1-0.1-0.2-0.3-0.4-0.3c-3.9,0-5.1-4.3-5.7-7.4c3.2-1.8,6.3-3.7,9.5-5.5c0.7,1.3,1.5,2.6,2.2,3.9c0.4,0.7,0.8,1.4,1.2,2.2
			c0,0,0,0,0,0c-1.3,0.5-2.6,1.2-3.8,1.8c-1.2,0.6-2.5,1.3-3.7,2.2c-0.2,0.2,0,0.5,0.3,0.4c1.3-0.6,2.6-1.3,3.9-2
			c1.2-0.6,2.4-1.2,3.6-1.9c0.2,0.3,0.3,0.8,0.4,1.1c0,0,0,0,0,0c-0.2,0-0.5,0.1-0.6,0.3c0,0,0,0,0,0c-2.5,1.1-5.1,2.5-7.4,4.1
			c-0.2,0.1,0,0.4,0.2,0.3c2.4-1,4.9-2.3,7.1-3.7c0,0,0,0,0,0l7.7,13.9c1.3,2.3,2.6,4.7,3.9,7c0.6,1.2,4.3,6.4,1.5,6.9
			c-0.3,0-0.5,0.4-0.3,0.6C100.2,162,100.6,162.8,101.1,163.5z M103,167c-2.1,0.5-4.1,1.3-5.9,2.3c-0.5-1.1-1-2.3-1.5-3.4
			c1.9-0.2,4-0.9,5.7-2c0.2,0.4,0.5,0.9,0.7,1.3c-1.5,0.5-3.1,0.8-4.6,1.3c-0.2,0.1-0.1,0.4,0.1,0.4c1.6-0.1,3.3-0.7,4.7-1.4
			C102.5,166.1,102.8,166.6,103,167z"/>
		<path id="XMLID_408_" class="st0" d="M82,142.5c-2,1.8-1.8,4.4-0.5,6.5c0,0.1,0,0.1,0.1,0.2c0,0,0.1,0,0.1,0.1c0,0,0,0.1,0.1,0.1
			c0.1,0.1,0.2,0.1,0.3,0.2c1.9,1.5,4.8,2.2,6.7,0.4c1.9-1.8,1-4.8-0.4-6.5C86.6,141.4,84,140.7,82,142.5z M82.7,143.1
			c1.8-1.5,3.8-0.5,5.1,1.1c1.2,1.7,1.9,4.5-0.5,5.6c-1.7,0.8-3.3,0-4.8-0.7c0-0.1,0-0.1,0-0.2C81.4,147,80.7,144.7,82.7,143.1z"/>
		<path id="XMLID_405_" class="st0" d="M59.8,176.7c0,0.3,0.2,0.5,0.4,0.5c13.5,2.5,27.3,3.8,41.1,3.8c0.4,0,0.6-0.3,0.5-0.6
			c-2.6-8-11.6-12-19.2-8.8c-1.8-6.2-3.4-13.5,1.6-18.6c0.2-0.2,0-0.6-0.2-0.6c0-0.2-0.1-0.5-0.4-0.5c-2.9-0.4-5-3.3-4.4-6.2
			c0.1-0.5-0.6-0.6-0.8-0.3c-6.2,6.9-9.7,15.9-9.9,25.1C64.4,169.9,60.4,172.8,59.8,176.7z M60.8,176.4c0.1-0.3,0.2-0.6,0.3-0.9
			c0.7,0.4,1.6,0.5,2.4,0.6c1,0.2,2,0.2,3,0.2c0.3,0,0.3-0.5,0-0.5c-0.9-0.1-1.8-0.1-2.7-0.3c-0.8-0.1-1.6-0.5-2.4-0.6
			c1.4-2.6,4.4-4.2,7.4-3.6c0.2,0,0.5-0.2,0.5-0.4c0.1-8.8,3.2-17.3,8.8-24c0.1,2.9,2.4,5.4,5.3,5.8c-0.3,0.3-0.5,0.5-0.8,0.8
			c-1.9-0.3-3.2-1.2-4.5-2.6c-0.1-0.1-0.5,0-0.3,0.2c0.9,1.6,2.8,2.5,4.6,2.7c-4.1,5.1-2.3,12.7-0.6,18.5c0.1,0.3,0.3,0.5,0.6,0.3
			c3.2-1.5,6.7-1.6,9.7-0.6c0.6,0.6,1.1,1.2,1.6,2c0.5,1,0.7,2,0.9,3.1c0,0.2,0.4,0.2,0.4,0c0.2-1.6-0.6-3.4-1.8-4.6
			c3.3,1.4,6,4.1,7.4,7.7C87.3,180.1,73.9,178.9,60.8,176.4z"/>
		<path id="XMLID_404_" class="st0" d="M83,145.3c-0.2,1-0.2,2,0.7,2.7c0.8,0.6,2,0.5,2.8-0.1c1.1-0.8,0.7-2.4-0.1-3.3
			c-0.8-0.9-1.8-1.2-2.9-0.7c-0.1,0-0.2-0.1-0.1-0.1c0.7-1.1,2.4-0.3,3.1,0.4c0.8,0.9,1.4,2.6,0.7,3.7c-0.7,1.1-2.6,1.3-3.7,0.7
			c-1.2-0.6-1.8-2.2-1.1-3.4C82.6,145,83,145.1,83,145.3z"/>
		<path id="XMLID_403_" class="st0" d="M94.2,162.4c-1.3-0.7-2.1-2.3-2.8-3.5c-0.1-0.2,0.2-0.3,0.3-0.2c0.6,0.7,0.9,1.6,1.5,2.3
			c1,1.3,2.7,1.8,3.8,0.4c0.1-0.1,0.3,0,0.2,0.2C96.5,162.6,95.4,163,94.2,162.4z"/>
		<path id="XMLID_402_" class="st0" d="M90.5,156.9c-0.2-0.3-0.4-0.7-0.5-1c-0.2-0.3-0.4-0.6-0.4-1c0-0.2,0.2-0.3,0.3-0.1
			c0.3,0.3,0.4,0.6,0.5,0.9c0.2,0.4,0.3,0.7,0.5,1.1C91,157,90.6,157.2,90.5,156.9z"/>
		<path id="XMLID_401_" class="st0" d="M81.6,139.2c-0.2-0.7-0.5-1.5-0.6-2.2c0-0.2,0.2-0.3,0.3-0.1c0.3,0.7,0.4,1.5,0.6,2.2
			C82,139.3,81.6,139.4,81.6,139.2z"/>
		<path id="XMLID_400_" class="st0" d="M94.3,178.1c0-0.2,0.3-0.3,0.4-0.1c0.2,0.4,0.1,1-0.2,1.3c-0.2,0.2-0.5-0.1-0.4-0.4
			C94.2,178.6,94.3,178.4,94.3,178.1z"/>
		<path id="XMLID_399_" class="st0" d="M69.8,176.4c3.2,0.1,6.3,0.4,9.5,0.7c3.2,0.3,6.3,0.5,9.5,0.9c0.2,0,0.2,0.4,0,0.4
			c-3.2-0.1-6.3-0.4-9.5-0.7c-3.2-0.3-6.3-0.5-9.5-0.9C69.5,176.7,69.6,176.4,69.8,176.4z"/>
	</g>
	<g id="XMLID_259_">
		<path id="XMLID_389_" class="st0" d="M133.3,26.6c-0.1,0-0.2,0.2-0.2,0.3c0.5,1,1.1,2.1,1.6,3.2c1.2,2.6,2.4,5.4,3,8.2
			c0.6,2.6,0.9,5.7-0.8,7.9c-0.1,0.2,0,0.4,0.2,0.4c1.9,0.5,3.7,1.7,5,3.2c1.3,1.6,2.1,3.7,2.6,5.7c0.5,1.7,0.7,3.5,0.7,5.4
			c0,1,0,2-0.3,3c-0.1,0.2,0.1,0.5,0.3,0.4c7.9-4.2,16.4-6.8,24.9-9.6c0.1,0,0.2-0.2,0.1-0.3c0-0.1-0.1-0.2-0.1-0.4
			c0.1-0.1,0-0.2-0.1-0.2c-0.1-0.4-0.2-0.8-0.3-1.2c0,0,0,0,0-0.1c0.5-0.2,0.9-0.3,1.4-0.5c0.2,0,0.2-0.2,0.2-0.3
			c-0.8-3.4-1.6-6.8-3.1-10c-0.7-1.5-1.5-2.9-2.6-4.2c-0.5-0.6-1-1.2-1.6-1.7c-0.2-0.2-0.4-0.4-0.7-0.4c2.1-6-0.2-13.1-5.3-16.9
			c-0.1-0.1-0.2-0.1-0.3,0c-0.5,0.2-1,0.5-1.5,0.7c0,0,0,0,0-0.1c-0.1-0.3-0.2-0.5-0.3-0.8c0,0,0,0,0-0.1c-0.1-0.1-0.1-0.3-0.2-0.4
			c0-0.1-0.2-0.2-0.3-0.2C148,20.3,141.1,24.7,133.3,26.6z M162.9,35.6c-3.5,1.7-7.1,3.2-10.7,4.8c-1.8,0.8-3.7,1.5-5.5,2.2
			c-1.6,0.6-3.2,1.2-4.8,1.9c1.8-2.8,1.9-6.4,1.2-9.5c-0.6-2.7-2-6.2-4.8-7.3c0.7-0.2,1.4-0.5,2-0.7c1.7-0.7,3.4-1.4,5.1-2.1
			c3-1.2,5.9-2.5,8.8-3.9c0.8-0.4,1.5-0.7,2.3-1.1c0.4-0.2,0.7-0.3,1.1-0.5c0.4-0.2,0.4-0.3,0.8,0c0.9,0.7,1.7,1.6,2.4,2.5
			C163.6,25.7,164.7,31,162.9,35.6z M147.7,60.7c0.9-2.9,0.9-6.1-0.3-8.9c-1.1-2.5-3-4.6-5.4-6c2.3,1,4.2,3,5.6,5
			c0.9,1.3,1.4,2.8,1.4,4.3c0,1.5-0.4,2.9-0.8,4.3c0,0.1,0.1,0.1,0.1,0c1.2-2.7,1.3-6.1-0.4-8.6c-1.5-2.2-3.6-4.4-6.1-5.5
			c3.7-0.3,6.5,3.1,7.6,6.4c0.5,1.6,0.7,3.3,0.4,4.9c-0.3,1.5-1,2.7-1.9,3.9C147.9,60.6,147.8,60.7,147.7,60.7z M142.6,35.3
			c0.6,3.1,0.4,6.5-1.4,9.2c1.2-5.8-0.4-12.1-4.2-16.7C140.5,28.4,142,32.3,142.6,35.3z M170.9,51.7c-7.4,2.4-14.8,5.1-21.9,8.4
			c1.9-2.3,1.8-5.9,0.9-8.5c-1.2-3.5-4.2-7-8.2-6.7c3.6-1.1,7.2-2.7,10.7-4.1c3.6-1.5,7.2-3.1,10.8-4.8c0,0,0,0,0,0
			c0.5-0.2,1.5,1.1,1.8,1.5c0.5,0.6,0.9,1.2,1.4,1.8c0.8,1.3,1.5,2.6,2.1,4C169.5,45.9,170.2,48.8,170.9,51.7z M169.6,52.7
			c0.1,0.4,0.2,0.8,0.3,1.1c-4,1.1-7.9,2.5-11.8,3.9c-4,1.4-7.9,3-11.7,4.8c0.5-1.6,0.4-3.5,0.1-5.1c-0.3-1.9-0.9-3.7-1.6-5.4
			c-1.3-2.9-3.8-5.6-7.1-5.8c2.3-2.1,1.9-6,1.4-8.8c-0.7-3.6-2.2-7-4.4-9.9c3.7-1,7.2-2.7,10.7-4.2c3.5-1.5,7-3,10.4-4.6
			c0.1,0.2,0.2,0.4,0.3,0.7c0,0,0,0.1,0,0.1c-3,1.4-6,2.8-9,4.1c-1.8,0.8-3.6,1.5-5.5,2.3c-0.9,0.4-1.8,0.7-2.7,1.1
			c-0.8,0.3-1.6,0.5-2.5,0.3c-0.2-0.1-0.4,0.3-0.3,0.4c4.3,4.8,6,11.6,4.4,17.9c0,0.1,0.1,0.2,0.2,0.3c2.8,1.3,5.1,3.5,6.3,6.3
			c1.3,2.8,1.1,6,0.3,9c0,0.1,0.1,0.2,0.2,0.2c0.1,0.1,0.2,0.1,0.3,0.1C154.8,57.9,162.1,55.1,169.6,52.7
			C169.6,52.7,169.6,52.7,169.6,52.7z M138.9,46.8c2.8,0.6,4.8,3.2,5.9,5.9c0.7,1.6,1.1,3.3,1.4,5c0.3,1.7,0.1,3.3-0.1,5
			c0,0,0,0,0,0c-0.1,0.1,0,0.3,0.1,0.2c3.9-1.8,7.9-3.4,11.9-4.8c3.9-1.4,7.9-2.5,11.8-3.9c0,0,0,0.1,0,0.1
			c-8.2,2.6-16.5,5.3-24.2,9.2c0.2-0.9,0.2-1.8,0.2-2.6c0-1.9-0.3-3.8-0.8-5.7c-0.6-2.1-1.4-4.3-2.9-5.9
			C141.3,48.2,140.2,47.4,138.9,46.8z M133.8,27c7.6-1.9,14.4-6.1,21.8-8.7c0,0.1,0,0.1,0.1,0.2c-3.5,1.4-7,2.9-10.5,4.5
			c-1.8,0.8-3.6,1.6-5.5,2.4c-1.8,0.8-3.5,1.5-5.4,1.9c-0.2,0-0.1,0.2,0,0.3c0,0,0,0,0,0.1c2.1,2.8,3.6,6,4.3,9.5
			c0.6,2.7,0.9,6.1-0.7,8.4c0.4-0.9,0.6-2,0.7-3c0.1-3-0.8-6-1.9-8.8C135.9,31.4,134.8,29.2,133.8,27z"/>
		<path id="XMLID_388_" class="st0" d="M157.7,55.9c-0.2,0-0.2-0.2-0.1-0.2c1.9-0.9,4-1.6,6-2.3c2-0.7,4-1.6,6-2.2
			c0.1,0,0.2,0.1,0.1,0.2c-1.9,0.9-4,1.6-6,2.3C161.7,54.5,159.7,55.3,157.7,55.9z"/>
		<path id="XMLID_387_" class="st0" d="M152.7,56.4c2.1-0.8,4.3-1.4,6.4-2.2c2.1-0.8,4.2-1.8,6.3-2.6c0.1,0,0.2,0.1,0.1,0.2
			c-2,1.1-4.1,1.9-6.2,2.7c-2.2,0.8-4.4,1.6-6.6,2.2C152.6,56.7,152.5,56.5,152.7,56.4z"/>
		<path id="XMLID_386_" class="st0" d="M144.1,26c2-0.9,4.1-1.5,6.1-2.4c2-0.9,3.9-1.9,5.9-2.9c0.1-0.1,0.3,0.2,0.1,0.2
			c-1.8,1.2-3.8,2.1-5.8,3c-2,0.9-4.1,1.8-6.3,2.3C144,26.2,144,26,144.1,26z"/>
		<path id="XMLID_385_" class="st0" d="M149.4,53c-0.3-0.9-0.6-1.7-1.1-2.5c-0.4-0.7-0.9-1.4-1.5-2.1c-0.6-0.6-1.3-1.2-2-1.6
			c-0.8-0.5-1.6-0.8-2.5-1.2c-0.1,0-0.1-0.2,0.1-0.2c1.7,0.4,3.4,1.6,4.6,2.8c1.2,1.3,2.3,3,2.5,4.7C149.5,53.1,149.4,53.1,149.4,53
			z"/>
		<path id="XMLID_384_" class="st0" d="M140.6,31.5c1,1.8,1.5,4.1,1.6,6.1c0.1,2.1,0,4.3-0.8,6.3c0,0.1-0.2,0-0.1,0
			c0.5-2.1,0.8-4.1,0.7-6.2c-0.1-2.1-0.8-4.1-1.5-6.1C140.5,31.5,140.6,31.4,140.6,31.5z"/>
		<path id="XMLID_383_" class="st0" d="M138.3,28.7c1.5,1.5,2.4,3.7,2.8,5.8c0,0.1-0.1,0.1-0.1,0c-0.2-1-0.6-2-1-2.9
			c-0.5-1-1.1-1.9-1.8-2.8C138.1,28.8,138.2,28.7,138.3,28.7z"/>
		<path id="XMLID_382_" class="st0" d="M150.5,58.4c1.5-0.6,3-1.1,4.6-1.4c0,0,0.1,0.1,0,0.1c-1.5,0.5-3.1,1-4.6,1.5
			C150.5,58.6,150.4,58.4,150.5,58.4z"/>
		<path id="XMLID_381_" class="st0" d="M156.9,21c0.4-0.3,0.9-0.5,1.4-0.7c0.1,0,0.1,0.1,0.1,0.1c-0.4,0.3-0.9,0.5-1.4,0.7
			C156.9,21.2,156.9,21.1,156.9,21z"/>
	</g>
	<g id="XMLID_260_">
		<path id="XMLID_261_" class="st0" d="M156.5,132.1c2.3,6.1,6.3,11.1,12.1,14.2c9.6,5.1,21.3,3.4,29.4-3.8
			c8.1-7.3,10.8-19.2,7.2-29.4c-2.3-6.5-7-11.9-12.9-14.9c0,0,0,0,0,0c-3.7-1.9-7.9-2.9-12.3-2.7c-5.5,0.3-10.9,2.5-15.1,6.1
			c-3.9,3.3-5.7,6-8.2,10.4C156.5,112.1,152.5,121.3,156.5,132.1z M173.1,97.8c2.3-0.6,4.6,0.4,6.6,1.5c2.2,1.3,4.3,2.8,6,4.7
			c1.8,1.9,3.1,4.4,3.6,7c-4.7-1.4-9.6-2.2-14.4-2.6c-3.7-0.3-7.3,0-10.9,0.9c-2.3,0.5-4.7,1.4-6.6,2.8c2.6-4,5.3-8.1,9.2-10.9
			C168.7,99.8,170.8,98.6,173.1,97.8z M195.8,110.2c0.2,1.2,0.3,2.4,0.4,3.6c-1.9-0.9-4-1.7-6.1-2.4c-0.5-4.1-3.2-7.7-6.4-10.2
			c-2.2-1.7-5.1-3.8-8-4.1c2.5-0.6,5.1-0.8,7.6-0.6c2.9,0.3,5.7,1.1,8.3,2.4C193.7,102.4,195.1,106.2,195.8,110.2z M200.7,116.3
			c-1.1-0.8-2.3-1.4-3.5-2.1c-0.3-5.1-1.6-10.1-4-14.6c4,2.4,7.3,5.9,9.5,10c-0.5,0.6-0.8,1.4-1,2.1c0,0.2,0.2,0.2,0.3,0.1
			c0.3-0.5,0.7-1.1,1-1.7c0.1,0.1,0.1,0.3,0.2,0.4C201.7,112.3,201,114.2,200.7,116.3z M205.8,120.9c-1.2-1.6-2.8-3-4.4-4.1
			c0.2-1.9,0.9-3.8,2.1-5.4c0.8,1.7,1.4,3.6,1.8,5.4C205.6,118.2,205.8,119.6,205.8,120.9z M201.8,136.7c0.3-1.6,0.4-3.2,0.5-4.8
			c0.1-2.3-0.1-4.5-0.4-6.7c-0.3-2.4-0.7-5-0.5-7.4c1.6,1.2,3.1,2.6,4.6,4.1C206,127.1,204.5,132.3,201.8,136.7z M179.5,148.4
			c3.6-1.9,6.7-4.9,9.2-8c5.8-7,8.8-16.2,8.5-25.3c0.3,0.1,0.5,0.3,0.8,0.4c0.9,0.5,1.7,1,2.5,1.6c-0.2,2.1,0,4.3,0.2,6.4
			c0.3,2.5,0.6,4.9,0.7,7.4c0,2.3-0.4,4.6-0.5,6.9c-0.3,0.5-0.7,0.9-1.1,1.4c0.2-0.8,0.3-1.7,0.3-2.6c0-0.2-0.3-0.2-0.3,0
			c-0.3,1.1-0.5,2.2-0.6,3.3c-1.2,1.4-2.6,2.7-4.2,3.8C190.5,147.1,184.9,148.6,179.5,148.4z M160.8,138.3c3.1-3.9,7.2-6.3,11.6-8.5
			c3.8-1.9,7.7-3.6,11.1-6.1c3.5-2.6,6.7-6.1,6.8-10.6c0-0.2,0-0.5,0-0.7c2.1,0.7,4.1,1.5,6,2.4c0.3,5.7-0.8,11.5-3.1,16.7
			c-1.5,3.5-3.6,6.8-6.1,9.6c-2.6,2.9-5.5,5.1-8.7,7.4c-4.4-0.4-8.7-1.9-12.4-4.6C164,142.2,162.2,140.3,160.8,138.3z M166.3,109.7
			c7.2-1.3,14.8,0,21.7,1.8c0.5,0.1,1,0.3,1.5,0.4c0.1,1.7-0.2,3.5-1,5.2c-2,3.7-5.8,6.2-9.3,8.2c-6.4,3.5-14.4,6-18.8,12.2
			c-0.2-0.3-0.4-0.6-0.6-1c1.7-2.8,3.6-5.7,6.8-6.9c0.1,0,0-0.2,0-0.1c-3.2,1.2-5.1,4-6.9,6.7c-0.1-0.2-0.2-0.4-0.3-0.6
			c0-0.1,0.1-0.1,0.1-0.2c0.2-0.3,0.4-0.6,0.5-0.9c0.1-0.2-0.2-0.3-0.3-0.2c-0.2,0.3-0.4,0.5-0.6,0.8c0,0,0,0.1-0.1,0.1
			c-0.8-1.6-1.6-3.3-2.2-5c-1.8-5-1.8-11.9,0.4-16.9C157.3,113.3,162.5,110.4,166.3,109.7z"/>
		<path id="XMLID_271_" class="st0" d="M189.3,121.1c1.2-1.8,2-3.9,2.3-6.1c0-0.1,0.2-0.1,0.2,0c-0.3,4.3-3,8.9-7,10.8
			c-0.2,0.1-0.3-0.2-0.1-0.3C186.4,124.3,188,123,189.3,121.1z"/>
		<path id="XMLID_272_" class="st0" d="M182.1,127.2c0.2-0.1,0.5,0.2,0.2,0.3c-0.7,0.4-1.4,0.8-2.1,1.1c-0.2,0-0.3-0.2-0.1-0.3
			C180.7,127.8,181.4,127.5,182.1,127.2z"/>
		<path id="XMLID_273_" class="st0" d="M199.7,118.7c0,3.6,1.2,7.2,0.6,10.8c0,0.1-0.3,0.1-0.3,0c0.1-3.6-0.7-7.2-0.5-10.8
			C199.5,118.5,199.7,118.6,199.7,118.7z"/>
	</g>
	<path id="XMLID_274_" class="st0" d="M160.1,150.9c0.2-0.3,0.3-0.6,0.5-0.9c0.2-0.4,0.8-0.1,0.6,0.3c-0.1,0.3-0.3,0.6-0.4,0.9
		c-0.1,0.3-0.2,0.6-0.5,0.7c-0.1,0.1-0.4,0-0.4-0.2C159.7,151.4,159.9,151.2,160.1,150.9z"/>
	<path id="XMLID_275_" class="st0" d="M157.1,156.3c0.2-0.3,0.7,0,0.5,0.3c-0.8,1.4-1.5,3.4-2.8,4.3c-0.2,0.1-0.4,0-0.3-0.2
		C154.7,159.1,156.2,157.6,157.1,156.3z"/>
	<path id="XMLID_276_" class="st0" d="M144.6,168c0.5-0.2,1.1-0.1,1.7-0.4c0.5-0.2,1.1-0.6,1.4-1.1c0.2-0.3,0.7,0,0.6,0.4
		c-0.4,0.7-0.8,1.2-1.5,1.6c-0.6,0.3-1.5,0.6-2.1,0.2C144.3,168.5,144.3,168.1,144.6,168z"/>
	<path id="XMLID_277_" class="st0" d="M131.7,171.6c1.5-0.8,3.5-1,5.1-1.3c0.3,0,0.4,0.4,0.1,0.5c-0.9,0.3-1.7,0.6-2.6,0.8
		c-0.8,0.2-1.6,0.5-2.4,0.5C131.7,172.3,131.4,171.8,131.7,171.6z"/>
	<path id="XMLID_278_" class="st0" d="M118.3,171.9c1.9-0.2,4,0.4,5.8,0.8c0.5,0.1,0.3,0.7-0.1,0.7c-1.9-0.1-4-0.2-5.8-0.9
		C117.9,172.3,118,171.9,118.3,171.9z"/>
	<path id="XMLID_279_" class="st0" d="M112.5,170.9c0.5-0.2,0.9,0.3,1.3,0.5c0.4,0.2,0.1,0.8-0.3,0.6c-0.4-0.1-1-0.2-1.2-0.7
		C112.2,171.2,112.3,171,112.5,170.9z"/>
	<path id="XMLID_280_" class="st0" d="M171.4,83.7c0.6,1.6,0.5,3.6,0.7,5.3c0,0.4-0.5,0.4-0.6,0c-0.3-1.7-0.9-3.5-0.7-5.3
		C170.8,83.4,171.3,83.4,171.4,83.7z"/>
	<path id="XMLID_281_" class="st0" d="M167.9,73.3c0.7,1.5,1,3.3,1.3,4.9c0.1,0.5-0.6,0.7-0.7,0.2c-0.5-1.6-1.2-3.3-1.4-5
		C167.2,73,167.7,72.9,167.9,73.3z"/>
	<path id="XMLID_282_" class="st0" d="M164.1,65.2c0.5,0.3,0.7,1,0.9,1.5c0.3,0.6,0.5,1.3,0.8,1.9c0.1,0.3-0.4,0.6-0.6,0.3
		c-0.3-0.6-0.7-1.2-1-1.8c-0.3-0.5-0.7-1.1-0.6-1.6C163.6,65.3,163.9,65.1,164.1,65.2z"/>
	<path id="XMLID_283_" class="st0" d="M43.8,176.8c0.5-0.4,1.2-0.5,1.8-0.7c0.7-0.2,1.3-0.4,2-0.6c0.4-0.1,0.6,0.4,0.2,0.6
		c-0.6,0.2-1.3,0.5-1.9,0.8c-0.6,0.2-1.2,0.5-1.9,0.6C43.7,177.5,43.5,177.1,43.8,176.8z"/>
	<path id="XMLID_284_" class="st0" d="M37.1,183.4c0.4-0.1,0.7,0.5,0.2,0.7c-1.8,0.7-2.5,2-3.5,3.5c-0.2,0.3-0.6,0.2-0.6-0.2
		C33.3,185.4,35.3,183.9,37.1,183.4z"/>
	<path id="XMLID_285_" class="st0" d="M27.4,196.5c0.5-0.7,0.9-1.4,1.2-2.1c0.1-0.3,0.7-0.2,0.6,0.2c-0.4,1.4-1.1,3.5-2.6,4
		c-0.3,0.1-0.5-0.2-0.4-0.4C26.5,197.5,27,197,27.4,196.5z"/>
	<path id="XMLID_286_" class="st0" d="M24.6,204.6c-0.4,2-0.7,4.2-1.6,6.1c-0.2,0.4-0.7,0.2-0.6-0.2c0.2-2,1-4.1,1.7-6.1
		C24.1,204,24.7,204.2,24.6,204.6z"/>
	<path id="XMLID_287_" class="st0" d="M23.5,220.6c0,0.7,0.1,1.3,0.1,2c0,0.6,0.1,1.2-0.1,1.8c-0.1,0.3-0.5,0.4-0.6,0.1
		c-0.2-0.6-0.1-1.2-0.1-1.8c0-0.7,0-1.3,0-2C22.7,220.1,23.5,220.1,23.5,220.6z"/>
	<path id="XMLID_288_" class="st0" d="M24.1,230.7c0.4,1.2,0.9,2.4,1.3,3.7c0.1,0.5-0.6,0.8-0.8,0.3c-0.5-1.2-0.8-2.5-1.2-3.7
		C23.3,230.5,23.9,230.3,24.1,230.7z"/>
	<path id="XMLID_289_" class="st0" d="M28.1,240.5c0.4,1.7,1.1,3.1,1.9,4.6c0.3,0.5-0.4,0.9-0.7,0.5c-1.1-1.4-1.6-3.2-2-4.9
		C27.2,240.2,28,240.1,28.1,240.5z"/>
	<path id="XMLID_290_" class="st0" d="M34.1,252c0.4,0.7,0.8,1.3,1.4,1.8c0.5,0.5,1,0.8,1.4,1.3c0.3,0.3-0.2,0.7-0.5,0.6
		c-1.3-0.4-2.4-2.1-3-3.3C33.2,252,33.9,251.5,34.1,252z"/>
</g>
</svg>
