<?xml version="1.0" encoding="utf-8"?>
<!-- Generator: Adobe Illustrator 19.0.0, SVG Export Plug-In . SVG Version: 6.00 Build 0)  -->
<svg version="1.1" id="Layer_1" xmlns="http://www.w3.org/2000/svg" xmlns:xlink="http://www.w3.org/1999/xlink" x="0px" y="0px"
	 viewBox="0 0 204.5 58.4" style="enable-background:new 0 0 204.5 58.4;" xml:space="preserve">
<style type="text/css">
	.st0{clip-path:url(#SVGID_2_);fill-rule:evenodd;clip-rule:evenodd;fill:#FF6666;}
	.st1{clip-path:url(#SVGID_2_);fill-rule:evenodd;clip-rule:evenodd;fill:#FF6600;}
	.st2{clip-path:url(#SVGID_2_);fill-rule:evenodd;clip-rule:evenodd;fill:#2D8BEF;}
	.st3{clip-path:url(#SVGID_2_);fill-rule:evenodd;clip-rule:evenodd;fill:#FF0000;}
	.st4{clip-path:url(#SVGID_2_);fill-rule:evenodd;clip-rule:evenodd;fill:#09E8FC;}
	.st5{clip-path:url(#SVGID_2_);fill-rule:evenodd;clip-rule:evenodd;fill:#FFCC00;}
	.st6{fill-rule:evenodd;clip-rule:evenodd;fill:#666666;}
	.st7{fill-rule:evenodd;clip-rule:evenodd;fill:#333333;}
</style>
<g>
	<g>
		<defs>
			<path id="SVGID_1_" d="M43.9,1.9L22.1,12.8c-0.7,0.3-0.5,1,0.3,1.4l8.1,4.1l13.1,6.5c0.9,0.4,2.1,0.5,2.8,0.2l13.4-6.7l3.6-1.8
				l-16.5-2.2c-0.4,0.2-1,0.3-1.7,0.3c-1.4,0-2.5-0.6-2.5-1.2c0-0.7,1.1-1.2,2.5-1.2c1.1,0,2.1,0.4,2.4,0.9l17.7,2.5l0,0l3-1.5
				c0.7-0.3,0.5-1-0.3-1.4L46.7,2C45.9,1.6,44.6,1.5,43.9,1.9L43.9,1.9z M30.5,20.5V23c0,0.3,0.1,0.6,0.4,0.8l13.3,10.6
				c0.5,0.4,1.4,0.4,1.9,0l13.3-10.6c0.3-0.2,0.4-0.5,0.4-0.8v-2.5l-12.5,6.3c-0.7,0.3-1.5,0.5-2.3,0.4c-0.8,0-1.6-0.2-2.2-0.6
				L30.5,20.5L30.5,20.5z M63.3,25.9L61.2,28c-0.5,0.5-0.5,1.4,0,2l2.1,2.1c0.5,0.5,1.4,0.5,2,0l2.1-2.1c0.5-0.5,0.5-1.4,0-2
				l-2.1-2.1c0,0-0.1-0.1-0.1-0.1v-8l-1.8,0.9L63.3,25.9C63.3,25.8,63.3,25.8,63.3,25.9L63.3,25.9z"/>
		</defs>
		<clipPath id="SVGID_2_">
			<use xlink:href="#SVGID_1_"  style="overflow:visible;"/>
		</clipPath>
		<path class="st0" d="M34.2-14.5c8.9,0,16,7.2,16,16c0,8.9-7.2,16-16,16s-16-7.2-16-16C18.2-7.3,25.4-14.5,34.2-14.5L34.2-14.5z"/>
		<path class="st1" d="M57.8,12c8.9,0,16,7.2,16,16c0,8.9-7.2,16-16,16c-8.9,0-16-7.2-16-16C41.7,19.2,48.9,12,57.8,12L57.8,12z"/>
		<path class="st2" d="M61.3-18.4c11,0,20,8.9,20,20s-8.9,20-20,20c-11,0-20-8.9-20-20S50.3-18.4,61.3-18.4L61.3-18.4z"/>
		<path class="st3" d="M47.4,15.9c-3.5,2.9-5.6,7.3-5.6,12.2c0,3.7,1.2,7,3.3,9.7c-3.6,3.5-8.5,5.6-13.9,5.6c-11,0-20-8.9-20-20
			c0-6.6,3.2-12.4,8.1-16.1c2.3,6,8.1,10.2,14.9,10.2c4.2,0,8.1-1.6,10.9-4.3C45.8,14.2,46.6,15.1,47.4,15.9L47.4,15.9z"/>
		<path class="st4" d="M45.2-10.2c3.2,2.9,5.1,7.1,5.1,11.8c0,4.6-2,8.8-5.1,11.7C42.8,10,41.3,6,41.3,1.6
			C41.3-2.8,42.8-6.9,45.2-10.2L45.2-10.2z"/>
		<path class="st5" d="M57.8,12c5.5,0,10.3,2.8,13.2,7c-2.9,1.6-6.2,2.5-9.7,2.5c-5.4,0-10.3-2.2-13.9-5.7
			C50.2,13.5,53.8,12,57.8,12L57.8,12z"/>
	</g>
	<path class="st6" d="M172.4,33.8H165c-4.1,0-7.4,3.3-7.4,7.4c0,4.1,3.3,7.4,7.4,7.4h7.4c1.4,0,2.5,1.1,2.5,2.5s-1.1,2.5-2.5,2.5
		H165h-6.2c-0.7,0-1.2,0.5-1.2,1.2v3.7h7.4h7.4c4.1,0,7.4-3.3,7.4-7.4c0-4.1-3.3-7.4-7.4-7.4H165c-1.4,0-2.5-1.1-2.5-2.5
		c0-1.4,1.1-2.5,2.5-2.5h7.4h3.7c0.7,0,1.2-0.5,1.2-1.2V35c0-0.7-0.5-1.2-1.2-1.2H172.4L172.4,33.8z"/>
	<path class="st6" d="M145.3,58.4c-6.8,0-12.3-5.6-12.3-12.3l0,0c0-6.8,5.6-12.3,12.3-12.3h8.7c0.7,0,1.2,0.5,1.2,1.2v2.5
		c0,0.7-0.5,1.2-1.2,1.2h-8.7c-4.1,0-7.4,3.3-7.4,7.4l0,0c0,4.1,3.3,7.4,7.4,7.4h8.7c0.7,0,1.2,0.5,1.2,1.2v3.7H145.3L145.3,58.4z
		 M145.4,43.6c-1.4,0-2.5,1.1-2.5,2.5l0,0c0,1.4,1.1,2.5,2.5,2.5h2.5h3.7c0.7,0,1.2-0.5,1.2-1.2v-2.5c0-0.7-0.5-1.2-1.2-1.2h-3.7
		H145.4L145.4,43.6z M145.3,53.5L145.3,53.5L145.3,53.5z"/>
	<path class="st6" d="M74,33.8L74,33.8c6.8,0,12.3,5.6,12.3,12.3l0,0c0,6.8-5.6,12.3-12.3,12.3l0,0c-6.8,0-12.3-5.6-12.3-12.3l0,0
		C61.6,39.3,67.2,33.8,74,33.8L74,33.8z M74,38.7L74,38.7c4.1,0,7.4,3.3,7.4,7.4l0,0c0,4.1-3.3,7.4-7.4,7.4l0,0
		c-4.1,0-7.4-3.3-7.4-7.4l0,0C66.6,42,69.9,38.7,74,38.7L74,38.7z"/>
	<path class="st6" d="M130.3,58.4h-16.7v0H112c-0.5,0-0.8-0.4-0.8-0.8v-4.1l0,0h0l14.6-14.8h-12.2h0H112c-0.5,0-0.8-0.4-0.8-0.8
		v-3.3c0-0.5,0.4-0.8,0.8-0.8h1.6v0h16.7v0h1.6c0.5,0,0.8,0.4,0.8,0.8v4.1l0,0l-14.6,14.8h12.2h1.6c0.5,0,0.8,0.4,0.8,0.8v3.3
		c0,0.5-0.4,0.8-0.8,0.8L130.3,58.4L130.3,58.4L130.3,58.4z"/>
	<path class="st6" d="M186,33.8h-1.3h-1.3H181c-0.7,0-1.2,0.5-1.2,1.2v2.5c0,0.7,0.5,1.2,1.2,1.2h1.3v18.5c0,0.7,0.5,1.2,1.2,1.2
		h2.5c0.7,0,1.2-0.5,1.2-1.2v-8.7h8.7c0.7,0,1.2-0.5,1.2-1.2v-2.5c0-0.7-0.5-1.2-1.2-1.2h-8.7V35C187.2,34.3,186.7,33.8,186,33.8
		L186,33.8z M203.3,33.8h-2.5c-0.7,0-1.2,0.5-1.2,1.2v22.3c0,0.7,0.5,1.2,1.2,1.2h2.5c0.7,0,1.2-0.5,1.2-1.2V35
		C204.5,34.3,204,33.8,203.3,33.8L203.3,33.8z"/>
	<path class="st6" d="M23.4,57.2l-1.2-4.4c-0.6-2.3-2.5-3.8-4.8-3.8c-2,0-4.1,1.3-4.8,3.7l-1.2,4.5c-0.2,0.7-0.9,1.2-1.5,1.2H7.3
		c-0.7,0-1.1-0.5-0.9-1.2l6-22.3c0.2-0.6,0.7-1.1,1.3-1.2l0.2,0c2.3,0,4.6,0,6.9,0c0.7,0,1.3,0.5,1.5,1.2l6,22.3
		c0.2,0.7-0.2,1.2-0.9,1.2h-2.5C24.3,58.4,23.6,57.9,23.4,57.2L23.4,57.2z M17.4,40.5c1.5,0,2.8,1.2,2.8,2.8c0,1.5-1.2,2.8-2.8,2.8
		c-1.5,0-2.8-1.2-2.8-2.8C14.6,41.8,15.9,40.5,17.4,40.5L17.4,40.5z"/>
	<path class="st6" d="M59.2,56V36.2h0v-1.6c0-0.5-0.4-0.8-0.8-0.8h-4.1h0h0v0l0,0c-0.3,0-0.6,0.1-0.8,0.3l-8.6,8.6l-8.6-8.6
		c-0.2-0.2-0.5-0.3-0.8-0.3l0,0v0h0h0h-4.1c-0.5,0-0.8,0.4-0.8,0.8v1.6h0V56h0v1.6c0,0.5,0.4,0.8,0.8,0.8h3.3c0.5,0,0.8-0.4,0.8-0.8
		V56V40.7v-0.5l9.4,9.4l9.4-9.4v0.5V56v1.6c0,0.5,0.4,0.8,0.8,0.8h3.3c0.5,0,0.8-0.4,0.8-0.8L59.2,56L59.2,56L59.2,56z"/>
	<path class="st6" d="M98.8,33.8L98.8,33.8c6.8,0,12.3,5.6,12.3,12.3l0,0c0,6.8-5.6,12.3-12.3,12.3l0,0c-4.9,0-9.1-2.9-11.1-7
		c0.8-1.6,1.2-3.4,1.2-5.4l0,0c0-1.9-0.4-3.7-1.2-5.4C89.7,36.6,93.9,33.8,98.8,33.8L98.8,33.8z M98.8,38.7L98.8,38.7
		c4.1,0,7.4,3.3,7.4,7.4l0,0c0,4.1-3.3,7.4-7.4,7.4l0,0c-4.1,0-7.4-3.3-7.4-7.4l0,0C91.4,42,94.7,38.7,98.8,38.7L98.8,38.7z"/>
	<path class="st7" d="M35.5,40.3l-2.1-2.4c-0.3-0.4-0.5-0.3-0.1,0.7c0.3,0.7,0.5,1.3,0.8,2c0.5,1.4,1.5,3.5,1.5,3.2V40.3L35.5,40.3z
		"/>
	<path class="st7" d="M187.2,48.6H184c-0.5,0-1,0.1,0,0.5c0.9,0.4,2.2,0.7,3.2,0.8V48.6L187.2,48.6z"/>
	<path class="st7" d="M125.8,38.7h3.8c0.8,0,1.5,0.1-0.1,0.5c-1.4,0.4-3.4,0.7-5,0.8L125.8,38.7L125.8,38.7z"/>
	<path class="st7" d="M118.1,53.5h2.1c0.5,0,1,0.1,0,0.4c-0.9,0.4-2.2,0.7-3.2,0.8L118.1,53.5L118.1,53.5z"/>
</g>
</svg>
